<svg width="391" height="128" viewBox="0 0 391 128" fill="none" xmlns="http://www.w3.org/2000/svg">
<rect x="141" y="2" width="95" height="94" rx="47" fill="#FFEB3B"/>
<path d="M176 105.047C177.5 108.047 180.8 113.847 182 113.047C183.5 112.047 187 102.047 189 105.047C191 108.047 194 116.547 196.5 113.047C199 109.547 200.5 101.047 203 105.047C205.5 109.047 207.5 115.547 209.5 113.047C211.5 110.547 212 105.047 215 106.047" stroke="#00ACC1" stroke-width="3"/>
<path d="M72.55 69.09C70.81 77.61 68.2 84.51 64.72 89.79C62.5 93.15 59.8 95.25 56.62 96.09C52.9 97.05 49.66 95.91 46.9 92.67C42.34 87.27 40.3 79.08 40.78 68.1C40.96 63.42 41.62 58.92 42.76 54.6C43.84 50.16 45.22 46.44 46.9 43.44C49.24 39.42 51.76 36.45 54.46 34.53C57.22 32.61 59.98 31.92 62.74 32.46C65.44 32.94 67.78 34.56 69.76 37.32C71.74 40.08 73.24 43.68 74.26 48.12C74.38 48.66 74.23 49.14 73.81 49.56C73.93 49.68 74.02 49.8 74.08 49.92C74.2 50.04 74.26 50.16 74.26 50.28L74.35 50.73V50.91C74.41 52.71 74.62 55.32 74.98 58.74C75.34 62.16 75.55 64.71 75.61 66.39C75.79 69.33 76.09 73.44 76.51 78.72C76.69 81.06 77.44 86.61 78.76 95.37C78.82 95.85 78.7 96.27 78.4 96.63C78.16 96.99 77.8 97.2 77.32 97.26C76.9 97.32 76.51 97.2 76.15 96.9C75.79 96.66 75.58 96.33 75.52 95.91C74.2 86.67 73.45 81.06 73.27 79.08C72.97 75.18 72.73 71.85 72.55 69.09ZM71.02 48.84C70.12 44.82 68.86 41.7 67.24 39.48C65.68 37.26 63.97 35.97 62.11 35.61C60.31 35.25 58.33 35.82 56.17 37.32C54.01 38.82 51.88 41.4 49.78 45.06C48.16 47.76 46.84 51.21 45.82 55.41C44.8 59.55 44.2 63.81 44.02 68.19C43.6 78.33 45.4 85.77 49.42 90.51C51.28 92.73 53.41 93.54 55.81 92.94C58.21 92.28 60.28 90.63 62.02 87.99C65.92 82.11 68.62 74.07 70.12 63.87C70.42 62.07 70.72 59.1 71.02 54.96C71.08 54.48 71.11 53.49 71.11 51.99V50.82V50.64V50.46C71.11 50.34 71.14 50.25 71.2 50.19C71.26 50.01 71.35 49.83 71.47 49.65C71.29 49.41 71.14 49.14 71.02 48.84ZM85.8264 33C85.3464 46.86 85.2264 58.41 85.4664 67.65C86.8464 62.67 89.1264 58.71 92.3064 55.77C94.1064 54.03 96.0264 53.16 98.0664 53.16C99.8664 53.1 101.576 53.7 103.196 54.96C105.956 57.12 107.906 60.24 109.046 64.32C110.366 69.06 111.056 74.31 111.116 80.07C111.176 85.83 110.576 91.11 109.316 95.91C109.256 96.39 109.016 96.72 108.596 96.9C108.236 97.14 107.816 97.2 107.336 97.08C106.916 97.02 106.586 96.78 106.346 96.36C106.166 96 106.136 95.61 106.256 95.19C107.396 90.63 107.936 85.62 107.876 80.16C107.816 74.64 107.186 69.66 105.986 65.22C105.026 61.8 103.436 59.25 101.216 57.57C100.196 56.73 99.1764 56.34 98.1564 56.4C96.9564 56.4 95.7264 56.97 94.4664 58.11C90.5664 61.77 88.2264 67.47 87.4464 75.21C87.1464 77.85 86.9964 81.27 86.9964 85.47C86.9964 91.05 86.9664 94.35 86.9064 95.37V96.63V96.9C86.9064 97.08 86.8764 97.26 86.8164 97.44C86.8164 97.5 86.7864 97.59 86.7264 97.71C86.5464 98.01 86.3064 98.22 86.0064 98.34C85.4064 98.64 84.8364 98.58 84.2964 98.16C84.1164 98.04 83.9664 97.86 83.8464 97.62L83.6664 97.08V96.81V95.28C83.6064 94.08 83.5164 92.61 83.3964 90.87C83.3364 90.51 83.0664 85.53 82.5864 75.93C81.9864 64.47 81.9864 50.1 82.5864 32.82C82.5864 32.4 82.7364 32.04 83.0364 31.74C83.3964 31.44 83.7864 31.29 84.2064 31.29C84.6864 31.29 85.0764 31.47 85.3764 31.83C85.6764 32.13 85.8264 32.52 85.8264 33ZM132.662 75.75C132.542 71.85 132.212 68.28 131.672 65.04C131.192 62.22 130.562 60.03 129.782 58.47C129.062 57.03 128.342 56.28 127.622 56.22C125.702 56.1 124.082 57.51 122.762 60.45C121.502 63.27 120.542 67.23 119.882 72.33C119.222 78.09 118.982 84.72 119.162 92.22V93.03C119.222 93.33 119.252 93.66 119.252 94.02V94.65V94.83V94.92V95.01V95.37C119.072 96.03 118.622 96.42 117.902 96.54C117.002 96.66 116.402 96.33 116.102 95.55L116.012 95.19V95.1V95.01V94.92V94.83V94.65C116.012 93.87 115.982 93.09 115.922 92.31C115.862 90.57 115.832 89.37 115.832 88.71V84.84C115.832 82.26 115.802 80.88 115.742 80.7C115.202 73.32 115.052 64.41 115.292 53.97C115.292 53.49 115.442 53.1 115.742 52.8C116.102 52.5 116.492 52.35 116.912 52.35C117.392 52.35 117.782 52.53 118.082 52.89C118.382 53.19 118.532 53.55 118.532 53.97C118.472 57.27 118.442 60.27 118.442 62.97C118.862 61.53 119.312 60.24 119.792 59.1C121.772 54.84 124.442 52.8 127.802 52.98C129.842 53.1 131.492 54.45 132.752 57.03C133.532 58.71 134.192 60.93 134.732 63.69C136.652 57.99 139.892 54.33 144.452 52.71C145.172 52.47 146.102 52.29 147.242 52.17C148.682 51.99 149.762 52.05 150.482 52.35C153.122 53.49 155.102 56.13 156.422 60.27C157.382 63.45 157.952 67.56 158.132 72.6C158.312 76.2 158.282 80.55 158.042 85.65C157.982 86.79 157.862 88.5 157.682 90.78C157.562 93 157.502 94.53 157.502 95.37C157.502 95.79 157.322 96.15 156.962 96.45C156.662 96.75 156.272 96.9 155.792 96.9C155.372 96.9 155.012 96.72 154.712 96.36C154.412 96.06 154.262 95.67 154.262 95.19C154.262 94.41 154.322 92.88 154.442 90.6C154.622 88.32 154.742 86.61 154.802 85.47C155.042 80.49 155.072 76.26 154.892 72.78C154.712 68.04 154.172 64.2 153.272 61.26C152.312 58.08 150.962 56.13 149.222 55.41C149.042 55.29 148.502 55.29 147.602 55.41C146.702 55.47 146.012 55.59 145.532 55.77C140.732 57.51 137.702 62.37 136.442 70.35C136.202 71.97 136.022 73.77 135.902 75.75V77.82C135.902 79.26 135.812 82.23 135.632 86.73V87C135.632 88.26 135.602 89.31 135.542 90.15C135.542 90.45 135.542 90.66 135.542 90.78L135.452 91.05V91.23C135.452 91.35 135.422 91.44 135.362 91.5C135.242 91.74 135.092 91.95 134.912 92.13C134.552 92.43 134.162 92.55 133.742 92.49C133.382 92.49 133.052 92.34 132.752 92.04C132.572 91.86 132.422 91.65 132.302 91.41V91.14C132.302 91.08 132.272 91.05 132.212 91.05C132.212 90.99 132.212 90.93 132.212 90.87V90.78C132.212 90.72 132.242 90.6 132.302 90.42C132.302 90 132.332 88.83 132.392 86.91C132.452 81.21 132.542 77.49 132.662 75.75ZM187.409 93.3C187.409 93.18 186.989 90.66 186.149 85.74C185.069 79.44 184.019 74.52 182.999 70.98C181.499 65.58 179.819 61.74 177.959 59.46C176.939 58.32 175.919 57.63 174.899 57.39C173.759 57.09 172.529 57.33 171.209 58.11C169.829 58.83 168.629 60.03 167.609 61.71C166.649 63.39 165.959 65.16 165.539 67.02C164.519 71.46 164.369 75.39 165.089 78.81C165.749 82.29 167.159 85.23 169.319 87.63C171.299 89.91 173.849 91.56 176.969 92.58C180.089 93.6 183.569 93.84 187.409 93.3ZM189.119 36.69C188.879 46.65 189.059 59.16 189.659 74.22C189.899 79.62 190.109 83.82 190.289 86.82C190.469 89.82 190.679 92.1 190.919 93.66C190.919 93.78 190.979 94.17 191.099 94.83C191.159 95.13 191.189 95.31 191.189 95.37V95.64C191.249 95.82 191.249 95.97 191.189 96.09C191.009 96.63 190.649 96.99 190.109 97.17C189.509 97.41 188.969 97.29 188.489 96.81C188.369 96.69 188.279 96.57 188.219 96.45C183.779 97.11 179.699 96.87 175.979 95.73C172.319 94.53 169.289 92.55 166.889 89.79C164.369 86.91 162.689 83.46 161.849 79.44C161.069 75.36 161.219 70.98 162.299 66.3C162.839 64.08 163.709 61.95 164.909 59.91C166.169 57.81 167.729 56.25 169.589 55.23C171.689 54.09 173.699 53.76 175.619 54.24C177.359 54.66 178.949 55.71 180.389 57.39C182.609 59.97 184.529 64.2 186.149 70.08L186.239 70.53C185.759 57.27 185.639 45.99 185.879 36.69C185.879 36.21 186.029 35.82 186.329 35.52C186.689 35.22 187.079 35.07 187.499 35.07C187.979 35.07 188.369 35.25 188.669 35.61C188.969 35.91 189.119 36.27 189.119 36.69ZM214.447 61.35C213.967 59.07 212.677 57.39 210.577 56.31C208.537 55.17 206.197 54.72 203.557 54.96C200.917 55.26 198.757 56.13 197.077 57.57C195.457 59.01 194.737 60.81 194.917 62.97C195.097 64.89 196.207 66.96 198.247 69.18C199.327 70.2 201.757 72.24 205.537 75.3C207.097 76.56 208.387 77.64 209.407 78.54C210.367 79.44 211.387 80.61 212.467 82.05C213.607 83.43 214.357 84.9 214.717 86.46C215.137 87.96 215.197 89.55 214.897 91.23C214.417 93.69 213.127 95.43 211.027 96.45C209.287 97.29 207.247 97.5 204.907 97.08C202.687 96.66 200.617 95.79 198.697 94.47C196.777 93.15 195.397 91.53 194.557 89.61C194.437 89.19 194.437 88.77 194.557 88.35C194.737 87.93 195.037 87.66 195.457 87.54C195.877 87.36 196.297 87.36 196.717 87.54C197.137 87.66 197.437 87.93 197.617 88.35C198.157 89.67 199.147 90.84 200.587 91.86C202.087 92.88 203.707 93.54 205.447 93.84C207.127 94.14 208.507 94.02 209.587 93.48C210.727 92.94 211.417 92.01 211.657 90.69C212.137 88.41 211.657 86.34 210.217 84.48C208.837 82.56 206.587 80.34 203.467 77.82C199.447 74.58 196.957 72.45 195.997 71.43C193.357 68.67 191.917 65.91 191.677 63.15C191.437 59.91 192.487 57.3 194.827 55.32C197.167 53.28 199.957 52.11 203.197 51.81C206.497 51.45 209.557 52.02 212.377 53.52C215.197 55.02 216.967 57.39 217.687 60.63C217.747 61.05 217.657 61.47 217.417 61.89C217.177 62.25 216.847 62.49 216.427 62.61C216.007 62.67 215.587 62.58 215.167 62.34C214.807 62.1 214.567 61.77 214.447 61.35ZM245.653 55.77C243.013 53.67 240.043 53.79 236.743 56.13C233.503 58.47 230.563 62.31 227.923 67.65C225.343 72.93 223.873 77.97 223.513 82.77C223.153 87.69 224.113 90.96 226.393 92.58C228.433 94.08 230.443 94.02 232.423 92.4C234.403 90.78 236.353 87.81 238.273 83.49C239.653 80.37 241.123 76.41 242.683 71.61C244.303 66.57 245.203 63.9 245.383 63.6V63.33V62.88V62.52C245.443 61.98 245.563 61.53 245.743 61.17C246.163 60.39 246.853 60.03 247.813 60.09C248.353 60.15 248.773 60.45 249.073 60.99C249.193 61.11 249.253 61.29 249.253 61.53C249.313 61.65 249.343 61.86 249.343 62.16C249.403 62.4 249.433 62.94 249.433 63.78C249.493 66.24 249.583 68.49 249.703 70.53C249.763 71.67 249.823 73.32 249.883 75.48C250.003 77.88 250.123 79.71 250.243 80.97C250.663 87.09 251.233 91.92 251.953 95.46C252.013 95.88 251.923 96.27 251.683 96.63C251.443 96.99 251.083 97.2 250.603 97.26C250.183 97.38 249.793 97.32 249.433 97.08C249.073 96.84 248.833 96.48 248.713 96C248.053 92.4 247.483 87.45 247.003 81.15L246.733 75.66C246.613 73.32 246.523 71.67 246.463 70.71V70.53L245.833 72.6C244.213 77.58 242.683 81.66 241.243 84.84C239.083 89.58 236.833 92.91 234.493 94.83C231.253 97.59 227.893 97.74 224.413 95.28C221.233 92.94 219.853 88.71 220.273 82.59C220.693 77.31 222.283 71.85 225.043 66.21C227.923 60.45 231.223 56.22 234.943 53.52C239.503 50.22 243.733 50.13 247.633 53.25C247.993 53.55 248.203 53.91 248.263 54.33C248.323 54.75 248.203 55.14 247.903 55.5C247.603 55.86 247.243 56.07 246.823 56.13C246.403 56.19 246.013 56.07 245.653 55.77ZM260.947 34.08C259.927 59.04 260.047 80.07 261.307 97.17C261.307 97.59 261.157 97.95 260.857 98.25C260.617 98.61 260.257 98.79 259.777 98.79C259.357 98.85 258.967 98.73 258.607 98.43C258.307 98.19 258.127 97.83 258.067 97.35C256.807 80.19 256.687 59.04 257.707 33.9C257.707 33.48 257.857 33.12 258.157 32.82C258.517 32.52 258.907 32.37 259.327 32.37C259.807 32.37 260.197 32.55 260.497 32.91C260.797 33.21 260.947 33.6 260.947 34.08ZM288.104 55.77C285.464 53.67 282.494 53.79 279.194 56.13C275.954 58.47 273.014 62.31 270.374 67.65C267.794 72.93 266.324 77.97 265.964 82.77C265.604 87.69 266.564 90.96 268.844 92.58C270.884 94.08 272.894 94.02 274.874 92.4C276.854 90.78 278.804 87.81 280.724 83.49C282.104 80.37 283.574 76.41 285.134 71.61C286.754 66.57 287.654 63.9 287.834 63.6V63.33V62.88V62.52C287.894 61.98 288.014 61.53 288.194 61.17C288.614 60.39 289.304 60.03 290.264 60.09C290.804 60.15 291.224 60.45 291.524 60.99C291.644 61.11 291.704 61.29 291.704 61.53C291.764 61.65 291.794 61.86 291.794 62.16C291.854 62.4 291.884 62.94 291.884 63.78C291.944 66.24 292.034 68.49 292.154 70.53C292.214 71.67 292.274 73.32 292.334 75.48C292.454 77.88 292.574 79.71 292.694 80.97C293.114 87.09 293.684 91.92 294.404 95.46C294.464 95.88 294.374 96.27 294.134 96.63C293.894 96.99 293.534 97.2 293.054 97.26C292.634 97.38 292.244 97.32 291.884 97.08C291.524 96.84 291.284 96.48 291.164 96C290.504 92.4 289.934 87.45 289.454 81.15L289.184 75.66C289.064 73.32 288.974 71.67 288.914 70.71V70.53L288.284 72.6C286.664 77.58 285.134 81.66 283.694 84.84C281.534 89.58 279.284 92.91 276.944 94.83C273.704 97.59 270.344 97.74 266.864 95.28C263.684 92.94 262.304 88.71 262.724 82.59C263.144 77.31 264.734 71.85 267.494 66.21C270.374 60.45 273.674 56.22 277.394 53.52C281.954 50.22 286.184 50.13 290.084 53.25C290.444 53.55 290.654 53.91 290.714 54.33C290.774 54.75 290.654 55.14 290.354 55.5C290.054 55.86 289.694 56.07 289.274 56.13C288.854 56.19 288.464 56.07 288.104 55.77ZM301.598 33C301.118 46.86 300.998 58.41 301.238 67.65C302.618 62.67 304.898 58.71 308.078 55.77C309.878 54.03 311.798 53.16 313.838 53.16C315.638 53.1 317.348 53.7 318.968 54.96C321.728 57.12 323.678 60.24 324.818 64.32C326.138 69.06 326.828 74.31 326.888 80.07C326.948 85.83 326.348 91.11 325.088 95.91C325.028 96.39 324.788 96.72 324.368 96.9C324.008 97.14 323.588 97.2 323.108 97.08C322.688 97.02 322.358 96.78 322.118 96.36C321.938 96 321.908 95.61 322.028 95.19C323.168 90.63 323.708 85.62 323.648 80.16C323.588 74.64 322.958 69.66 321.758 65.22C320.798 61.8 319.208 59.25 316.988 57.57C315.968 56.73 314.948 56.34 313.928 56.4C312.728 56.4 311.498 56.97 310.238 58.11C306.338 61.77 303.998 67.47 303.218 75.21C302.918 77.85 302.768 81.27 302.768 85.47C302.768 91.05 302.738 94.35 302.678 95.37V96.63V96.9C302.678 97.08 302.648 97.26 302.588 97.44C302.588 97.5 302.558 97.59 302.498 97.71C302.318 98.01 302.078 98.22 301.778 98.34C301.178 98.64 300.608 98.58 300.068 98.16C299.888 98.04 299.738 97.86 299.618 97.62L299.438 97.08V96.81V95.28C299.378 94.08 299.288 92.61 299.168 90.87C299.108 90.51 298.838 85.53 298.358 75.93C297.758 64.47 297.758 50.1 298.358 32.82C298.358 32.4 298.508 32.04 298.808 31.74C299.168 31.44 299.558 31.29 299.978 31.29C300.458 31.29 300.848 31.47 301.148 31.83C301.448 32.13 301.598 32.52 301.598 33Z" fill="black"/>
<circle cx="332" cy="96" r="3" fill="black"/>
<path d="M346.362 89.675C346.313 88.0717 346.177 86.604 345.955 85.272C345.758 84.1127 345.499 83.2123 345.178 82.571C344.882 81.979 344.586 81.6707 344.29 81.646C343.501 81.5967 342.835 82.1763 342.292 83.385C341.774 84.5443 341.379 86.1723 341.108 88.269C340.837 90.637 340.738 93.3627 340.812 96.446V96.779C340.837 96.9023 340.849 97.038 340.849 97.186V97.445V97.519V97.556V97.593V97.741C340.775 98.0123 340.59 98.1727 340.294 98.222C339.924 98.2713 339.677 98.1357 339.554 97.815L339.517 97.667V97.63V97.593V97.556V97.519V97.445C339.517 97.1243 339.505 96.8037 339.48 96.483C339.455 95.7677 339.443 95.2743 339.443 95.003V93.412C339.443 92.3513 339.431 91.784 339.406 91.71C339.184 88.676 339.122 85.013 339.221 80.721C339.221 80.5237 339.283 80.3633 339.406 80.24C339.554 80.1167 339.714 80.055 339.887 80.055C340.084 80.055 340.245 80.129 340.368 80.277C340.491 80.4003 340.553 80.5483 340.553 80.721C340.528 82.0777 340.516 83.311 340.516 84.421C340.689 83.829 340.874 83.2987 341.071 82.83C341.885 81.0787 342.983 80.24 344.364 80.314C345.203 80.3633 345.881 80.9183 346.399 81.979C346.72 82.6697 346.991 83.5823 347.213 84.717C348.002 82.3737 349.334 80.869 351.209 80.203C351.505 80.1043 351.887 80.0303 352.356 79.981C352.948 79.907 353.392 79.9317 353.688 80.055C354.773 80.5237 355.587 81.609 356.13 83.311C356.525 84.6183 356.759 86.308 356.833 88.38C356.907 89.86 356.895 91.6483 356.796 93.745C356.771 94.2137 356.722 94.9167 356.648 95.854C356.599 96.7667 356.574 97.3957 356.574 97.741C356.574 97.9137 356.5 98.0617 356.352 98.185C356.229 98.3083 356.068 98.37 355.871 98.37C355.698 98.37 355.55 98.296 355.427 98.148C355.304 98.0247 355.242 97.8643 355.242 97.667C355.242 97.3463 355.267 96.7173 355.316 95.78C355.39 94.8427 355.439 94.1397 355.464 93.671C355.563 91.6237 355.575 89.8847 355.501 88.454C355.427 86.5053 355.205 84.9267 354.835 83.718C354.44 82.4107 353.885 81.609 353.17 81.313C353.096 81.2637 352.874 81.2637 352.504 81.313C352.134 81.3377 351.85 81.387 351.653 81.461C349.68 82.1763 348.434 84.1743 347.916 87.455C347.817 88.121 347.743 88.861 347.694 89.675V90.526C347.694 91.118 347.657 92.339 347.583 94.189V94.3C347.583 94.818 347.571 95.2497 347.546 95.595C347.546 95.7183 347.546 95.8047 347.546 95.854L347.509 95.965V96.039C347.509 96.0883 347.497 96.1253 347.472 96.15C347.423 96.2487 347.361 96.335 347.287 96.409C347.139 96.5323 346.979 96.5817 346.806 96.557C346.658 96.557 346.522 96.4953 346.399 96.372C346.325 96.298 346.263 96.2117 346.214 96.113V96.002C346.214 95.9773 346.202 95.965 346.177 95.965C346.177 95.9403 346.177 95.9157 346.177 95.891V95.854C346.177 95.8293 346.189 95.78 346.214 95.706C346.214 95.5333 346.226 95.0523 346.251 94.263C346.276 91.9197 346.313 90.3903 346.362 89.675ZM359.582 87.714C360.766 88.1333 361.876 88.0963 362.912 87.603C363.997 87.0603 364.824 86.16 365.391 84.902C365.934 83.718 366.069 82.6943 365.798 81.831C365.551 81.0663 364.959 80.7457 364.022 80.869C362.789 81.017 361.716 81.979 360.803 83.755C360.236 84.9143 359.829 86.234 359.582 87.714ZM358.287 87.418C358.558 85.8147 359.002 84.3963 359.619 83.163C360.729 80.9677 362.147 79.759 363.874 79.537C364.688 79.4383 365.366 79.5617 365.909 79.907C366.476 80.2523 366.871 80.758 367.093 81.424C367.463 82.608 367.303 83.9523 366.612 85.457C365.897 87.011 364.861 88.121 363.504 88.787C362.221 89.4037 360.865 89.5023 359.434 89.083C359.409 89.305 359.397 89.5393 359.397 89.786C359.323 92.1047 359.705 93.9547 360.544 95.336C361.432 96.7667 362.715 97.3463 364.392 97.075C365.354 96.927 366.254 96.483 367.093 95.743C367.932 95.003 368.647 94.1027 369.239 93.042C369.338 92.894 369.473 92.7953 369.646 92.746C369.819 92.6967 369.979 92.7213 370.127 92.82C370.3 92.894 370.411 93.0173 370.46 93.19C370.509 93.3627 370.497 93.5353 370.423 93.708C369.732 94.8673 368.894 95.891 367.907 96.779C366.92 97.667 365.823 98.2097 364.614 98.407C362.32 98.7523 360.581 97.963 359.397 96.039C358.41 94.4357 357.966 92.339 358.065 89.749C358.065 89.3297 358.09 88.9103 358.139 88.491C357.892 88.269 357.843 88.01 357.991 87.714C358.065 87.566 358.164 87.4673 358.287 87.418Z" fill="black"/>
</svg>
