<svg width="79" height="74" viewBox="0 0 79 74" fill="none" xmlns="http://www.w3.org/2000/svg">
<path opacity="0.4" d="M4.0144 13.8283L26.0485 6.56653V56.2819L6.70149 66.8953L4.0144 13.8283Z" fill="white"/>
<path opacity="0.4" d="M53.4568 13.2697L74.9536 8.8009V56.2819L55.0691 68.5711L53.4568 13.2697Z" fill="white"/>
<path d="M52.7966 73.1051C51.2118 73.1051 49.6269 72.7603 48.3368 72.109L28.9863 62.0333C27.8805 61.4587 25.7059 61.497 24.637 62.1482L15.9385 67.3202C12.179 69.5422 8.30894 69.8487 5.39716 68.0481C2.44853 66.2858 0.789917 62.6846 0.789917 58.1639V20.9258C0.789917 17.4395 3.00139 13.4935 5.91317 11.7695L21.8727 2.26849C24.5633 0.659438 28.6545 0.544505 31.4189 2.00031L50.7695 12.076C51.8752 12.6507 54.013 12.5741 55.1187 11.9611L63.7803 6.82746C67.5398 4.60544 71.4099 4.29895 74.3217 6.09956C77.2703 7.86185 78.9289 11.4631 78.9289 15.9837V53.2602C78.9289 56.7464 76.7175 60.6924 73.8057 62.4164L57.8462 71.9175C56.4456 72.6837 54.6027 73.1051 52.7966 73.1051ZM26.9591 55.9036C28.544 55.9036 30.1289 56.2484 31.4189 56.8997L50.7695 66.9754C51.8752 67.5501 54.013 67.4734 55.1187 66.8605L71.0782 57.3594C72.2576 56.6698 73.4002 54.601 73.4002 53.2218V15.9454C73.4002 13.5318 72.7368 11.7312 71.5205 11.0416C70.341 10.352 68.4981 10.6202 66.5078 11.8078L57.8462 16.9415C55.1556 18.5505 51.0643 18.6655 48.3 17.2097L28.9494 7.13394C27.8437 6.55928 25.7059 6.6359 24.6002 7.24888L8.64066 16.7499C7.46121 17.4395 6.31861 19.5083 6.31861 20.9258V58.2022C6.31861 60.6158 6.98205 62.4164 8.16151 63.106C9.34096 63.8339 11.1839 63.5274 13.211 62.3398L21.8727 57.2062C23.3101 56.325 25.153 55.9036 26.9591 55.9036Z" fill="white"/>
<path d="M26.6697 59.0826C25.1585 59.0826 23.9053 57.78 23.9053 56.2093V6.40541C23.9053 4.83467 25.1585 3.5321 26.6697 3.5321C28.1809 3.5321 29.434 4.83467 29.434 6.40541V56.2093C29.434 57.78 28.1809 59.0826 26.6697 59.0826Z" fill="white"/>
<path d="M53.0966 70.5763C51.5854 70.5763 50.3323 69.2737 50.3323 67.703V16.4434C50.3323 14.8726 51.5854 13.5701 53.0966 13.5701C54.6078 13.5701 55.861 14.8726 55.861 16.4434V67.703C55.861 69.2737 54.6078 70.5763 53.0966 70.5763Z" fill="white"/>
</svg>
