<svg width="84" height="81" viewBox="0 0 84 81" fill="none" xmlns="http://www.w3.org/2000/svg">
<path opacity="0.3" d="M78.5915 44.447V48.4591H75.0172C71.9771 48.4591 69.5121 50.8664 69.5121 53.8754V55.0791C69.5121 58.0881 67.0472 60.4954 63.966 60.4954C60.9258 60.4954 58.4609 58.0881 58.4609 55.0791V53.8754C58.4609 50.8664 55.9548 48.4591 52.9147 48.4591C49.8745 48.4591 47.4096 50.8664 47.4096 53.8754V55.0791C47.4096 58.0881 44.9035 60.4954 41.8634 60.4954C38.8232 60.4954 36.3172 58.0881 36.3172 55.0791V53.8754C36.3172 50.8664 33.8521 48.4591 30.812 48.4591C27.7719 48.4591 25.2658 50.8664 25.2658 53.8754V55.0791C25.2658 58.0881 22.8008 60.4954 19.7607 60.4954C16.6795 60.4954 14.2145 58.0881 14.2145 55.0791V53.7952C14.2145 50.8262 11.7906 48.419 8.79157 48.3788H5.54602V44.447C5.54602 38.9103 9.81864 34.2161 15.6113 32.852C16.7616 32.5711 17.9531 32.4106 19.2266 32.4106H64.9109C66.1844 32.4106 67.3758 32.5711 68.5262 32.852C74.3188 34.2161 78.5915 38.9103 78.5915 44.447Z" fill="white"/>
<path d="M68.5306 21.0565V26.7136C67.3392 26.4729 66.1478 26.3926 64.9153 26.3926H19.2314C17.9989 26.3926 16.8075 26.513 15.6161 26.7537V21.0565C15.6161 16.242 20.053 12.3502 25.5581 12.3502H58.5886C64.0937 12.3502 68.5306 16.242 68.5306 21.0565Z" fill="white"/>
<path d="M28.7193 6.52645V12.3841H25.556C24.4878 12.3841 23.5018 12.5045 22.5569 12.7452V6.52645C22.5569 5.12221 23.9537 3.91858 25.6381 3.91858C27.3225 3.91858 28.7193 5.12221 28.7193 6.52645Z" fill="white"/>
<path d="M61.5856 5.64238V12.7438C60.6407 12.463 59.6547 12.3426 58.5865 12.3426H55.4232V5.64238C55.4232 3.99746 56.82 2.6333 58.5044 2.6333C60.1888 2.6333 61.5856 3.99746 61.5856 5.64238Z" fill="white"/>
<path d="M45.1525 3.60377V12.3502H38.99V3.60377C38.99 1.79832 40.3868 0.313843 42.0712 0.313843C43.7556 0.313843 45.1525 1.79832 45.1525 3.60377Z" fill="white"/>
<path d="M83.1541 77.5487C83.1541 79.1936 81.7573 80.5578 80.0729 80.5578H4.06956C2.38516 80.5578 0.988342 79.1936 0.988342 77.5487C0.988342 75.9037 2.38516 74.5396 4.06956 74.5396H5.54854V54.3988H8.0546V54.6797C8.0546 60.0559 11.6699 65.0309 17.0517 66.1944C21.2422 67.1573 25.2272 65.8333 27.9387 63.2254C29.4999 61.7008 32.047 61.6607 33.6081 63.1853C35.7445 65.2315 38.6613 66.5154 41.8658 66.5154C45.0703 66.5154 47.9872 65.2716 50.1235 63.1853C51.6846 61.7008 54.1907 61.7008 55.7929 63.2254C58.4633 65.8333 62.4483 67.1573 66.6799 66.1944C72.0617 65.0309 75.677 60.0559 75.677 54.6797V54.479H78.5939V74.5396H80.0729C81.7573 74.5396 83.1541 75.9037 83.1541 77.5487Z" fill="white"/>
</svg>
