<svg width="84" height="73" viewBox="0 0 84 73" fill="none" xmlns="http://www.w3.org/2000/svg">
<path opacity="0.4" d="M42.0448 10.5136V72.4471C41.3332 72.4471 40.5797 72.3312 39.9937 72.0221L39.8263 71.9449C31.7895 67.8881 17.7671 63.6381 8.68395 62.5176L7.47006 62.3631C3.4517 61.8995 0.186775 58.4222 0.186775 54.7132V8.04091C0.186775 3.44321 4.247 -0.0340335 9.2281 0.352327C18.0183 1.00914 31.3291 5.10457 38.7798 9.39317L39.8263 9.97271C40.4542 10.3204 41.2495 10.5136 42.0448 10.5136Z" fill="white"/>
<path d="M83.9027 8.07989V54.7135C83.9027 58.4226 80.6378 61.8999 76.6195 62.3635L75.2381 62.518C66.1131 63.6385 52.0488 67.9271 44.0121 72.0225C43.4679 72.3316 42.7982 72.4475 42.0448 72.4475V10.514C42.8401 10.514 43.6354 10.3208 44.2632 9.97306L44.9748 9.54807C52.4255 5.22082 65.7782 1.08676 74.5684 0.391312H74.8196C79.8007 0.00495073 83.9027 3.44356 83.9027 8.07989Z" fill="white"/>
<path d="M24.2551 25.7365H14.8371C13.1209 25.7365 11.6977 24.4228 11.6977 22.8387C11.6977 21.2547 13.1209 19.941 14.8371 19.941H24.2551C25.9713 19.941 27.3945 21.2547 27.3945 22.8387C27.3945 24.4228 25.9713 25.7365 24.2551 25.7365Z" fill="white"/>
<path d="M27.3944 37.3272H14.8371C13.1209 37.3272 11.6977 36.0135 11.6977 34.4294C11.6977 32.8454 13.1209 31.5317 14.8371 31.5317H27.3944C29.1106 31.5317 30.5338 32.8454 30.5338 34.4294C30.5338 36.0135 29.1106 37.3272 27.3944 37.3272Z" fill="white"/>
</svg>
