<svg width="76" height="73" viewBox="0 0 76 73" fill="none" xmlns="http://www.w3.org/2000/svg">
<path opacity="0.4" d="M58.9614 20.7554C58.6965 20.7205 58.4316 20.7205 58.1666 20.7554C52.3005 20.5807 47.6454 16.1442 47.6454 10.6947C47.6454 5.1403 52.5275 0.598999 58.5829 0.598999C64.6005 0.598999 69.5205 5.10537 69.5205 10.6947C69.4826 16.1442 64.8276 20.5807 58.9614 20.7554Z" fill="white"/>
<path opacity="0.4" d="M71.3012 44.9637C67.0624 47.5837 61.1205 48.5618 55.6328 47.8981C57.071 45.0336 57.8279 41.8546 57.8658 38.5011C57.8658 35.0078 57.0331 31.6891 55.4436 28.7897C61.0448 28.0911 66.9867 29.0691 71.2633 31.6891C77.243 35.3222 77.243 41.2957 71.3012 44.9637Z" fill="white"/>
<path opacity="0.4" d="M16.9949 20.7554C17.2598 20.7205 17.5247 20.7205 17.7896 20.7554C23.6558 20.5807 28.3109 16.1442 28.3109 10.6947C28.3109 5.1403 23.4287 0.598999 17.3733 0.598999C11.3558 0.598999 6.43579 5.10537 6.43579 10.6947C6.47364 16.1442 11.1287 20.5807 16.9949 20.7554Z" fill="white"/>
<path opacity="0.4" d="M17.4064 38.5018C17.4064 41.8903 18.2012 45.1041 19.6393 48.0036C14.303 48.5276 8.73964 47.4796 4.65225 44.9993C-1.32744 41.3313 -1.32744 35.3578 4.65225 31.6898C8.7018 29.1746 14.4166 28.1616 19.7907 28.7205C18.239 31.6549 17.4064 34.9735 17.4064 38.5018Z" fill="white"/>
<path d="M38.4932 49.0512C38.1905 49.0162 37.8498 49.0162 37.5092 49.0512C30.5455 48.8416 24.9821 43.5667 24.9821 37.0691C24.9821 30.4318 30.7726 25.0521 38.0012 25.0521C45.192 25.0521 51.0203 30.4318 51.0203 37.0691C51.0203 43.5667 45.4948 48.8416 38.4932 49.0512Z" fill="white"/>
<path d="M26.1928 56.282C20.478 59.8103 20.478 65.6092 26.1928 69.1025C32.7024 73.1198 43.3751 73.1198 49.8846 69.1025C55.5994 65.5742 55.5994 59.7753 49.8846 56.282C43.4129 52.2647 32.7403 52.2647 26.1928 56.282Z" fill="white"/>
</svg>
