<svg width="60" height="60" viewBox="0 0 60 60" fill="none" xmlns="http://www.w3.org/2000/svg">
<path d="M18.2998 28.7402H4.23005C4.47005 12.8377 7.22997 10.2157 15.8398 4.42685C16.8298 3.74581 17.1598 2.31562 16.5598 1.15785C15.9598 0.0341285 14.6998 -0.34041 13.6798 0.340631C3.53994 7.15105 0 11.3053 0 31.1238V49.4779C0 55.3008 4.17002 60 9.26994 60H18.2698C23.5497 60 27.5395 55.4711 27.5395 49.4779V39.2623C27.5695 33.2691 23.5797 28.7402 18.2998 28.7402Z" fill="#FFEB3B"/>
<path opacity="0.4" d="M50.7599 28.7402H36.6902C36.9301 12.8377 39.6904 10.2157 48.3003 4.42685C49.2902 3.74581 49.6202 2.31562 49.0203 1.15785C48.4203 0.0341285 47.16 -0.34041 46.14 0.340631C36.0002 7.15105 32.4602 11.3053 32.4602 31.1238V49.4779C32.4602 55.3008 36.6305 60 41.7304 60H50.7302C56.0101 60 59.9998 55.4711 59.9998 49.4779V39.2623C60.0298 33.2691 56.0398 28.7402 50.7599 28.7402Z" fill="#FFEB3B"/>
</svg>
