<svg width="29" height="24" viewBox="0 0 29 24" fill="none" xmlns="http://www.w3.org/2000/svg">
<g filter="url(#filter0_d_26_404)">
<path d="M19.0369 1.38251L20.7357 4.78004C20.9646 5.24991 21.5791 5.69569 22.0971 5.79207L25.1694 6.29809C27.1332 6.62338 27.591 8.04504 26.1814 9.46671L23.7838 11.8643C23.3863 12.2618 23.1573 13.045 23.2899 13.6112L23.9766 16.575C24.5188 18.9123 23.2658 19.828 21.2056 18.5991L18.3261 16.8883C17.808 16.575 16.9406 16.575 16.4225 16.8883L13.5431 18.5991C11.4829 19.8159 10.2299 18.9123 10.7721 16.575L11.4588 13.6112C11.5913 13.057 11.3624 12.2739 10.9648 11.8643L8.56729 9.46671C7.15767 8.05709 7.61549 6.63543 9.57932 6.29809L12.6515 5.79207C13.1696 5.70773 13.784 5.24991 14.0129 4.78004L15.7117 1.38251C16.6153 -0.460835 18.1092 -0.460835 19.0369 1.38251Z" fill="#FFEB3B"/>
<path opacity="0.4" d="M10.1324 2.03315H2.9036C2.40963 2.03315 2 1.62352 2 1.12955C2 0.635584 2.40963 0.225952 2.9036 0.225952H10.1324C10.6264 0.225952 11.036 0.635584 11.036 1.12955C11.036 1.62352 10.6264 2.03315 10.1324 2.03315Z" fill="#FFEB3B"/>
<path opacity="0.4" d="M6.51799 18.9003H2.9036C2.40963 18.9003 2 18.4906 2 17.9967C2 17.5027 2.40963 17.0931 2.9036 17.0931H6.51799C7.01196 17.0931 7.42159 17.5027 7.42159 17.9967C7.42159 18.4906 7.01196 18.9003 6.51799 18.9003Z" fill="#FFEB3B"/>
<path opacity="0.4" d="M4.1084 10.4667H2.9036C2.40963 10.4667 2 10.0571 2 9.56314C2 9.06918 2.40963 8.65955 2.9036 8.65955H4.1084C4.60237 8.65955 5.012 9.06918 5.012 9.56314C5.012 10.0571 4.60237 10.4667 4.1084 10.4667Z" fill="#FFEB3B"/>
</g>
<defs>
<filter id="filter0_d_26_404" x="0" y="0" width="29" height="23.1456" filterUnits="userSpaceOnUse" color-interpolation-filters="sRGB">
<feFlood flood-opacity="0" result="BackgroundImageFix"/>
<feColorMatrix in="SourceAlpha" type="matrix" values="0 0 0 0 0 0 0 0 0 0 0 0 0 0 0 0 0 0 127 0" result="hardAlpha"/>
<feOffset dy="2"/>
<feGaussianBlur stdDeviation="1"/>
<feComposite in2="hardAlpha" operator="out"/>
<feColorMatrix type="matrix" values="0 0 0 0 0 0 0 0 0 0 0 0 0 0 0 0 0 0 0.1 0"/>
<feBlend mode="normal" in2="BackgroundImageFix" result="effect1_dropShadow_26_404"/>
<feBlend mode="normal" in="SourceGraphic" in2="effect1_dropShadow_26_404" result="shape"/>
</filter>
</defs>
</svg>
