<svg width="61" height="61" viewBox="0 0 61 61" fill="none" xmlns="http://www.w3.org/2000/svg">
<path d="M44.671 8.65773C44.7124 8.69583 44.7903 8.58853 44.7371 8.66588C44.6839 8.74323 44.6129 8.6779 44.671 8.65773Z" fill="#CBC4F6"/>
<path d="M46.1213 3.76517C46.5367 3.91362 46.1264 4.0919 46.388 4.251C46.3961 4.27411 46.1666 4.24205 46.2215 4.28337C46.5402 4.44408 46.3561 4.66864 46.1086 4.85046L46.0474 4.83726C45.9934 4.85617 46.2093 4.91887 46.1813 4.95459C46.1429 4.94918 46.1043 4.94687 46.0658 4.94757C46.1912 4.95982 46.1229 5.0184 46.2182 5.03688C46.1714 5.05328 46.0666 5.04229 46.0126 5.06121L46.1592 5.08773C46.5028 5.1576 46.1312 5.22721 46.3115 5.31538C46.2809 5.30812 46.2498 5.30446 46.2188 5.30455C46.4287 5.44286 46.3881 5.60408 46.4671 5.74933C46.4 5.74029 46.3325 5.7365 46.2652 5.73795C46.4163 5.75419 46.4568 5.80061 46.486 5.83794C46.3285 5.84985 46.6294 5.91301 46.529 5.96113L46.4899 5.9533C46.654 5.99525 46.3927 5.98724 46.5924 6.03836L46.4714 6.05055C46.6909 6.07744 46.3526 6.09214 46.4654 6.1261L46.5051 6.11222C46.5608 6.14457 46.4438 6.13362 46.4865 6.17487L46.4614 6.18367C46.518 6.24166 46.3975 6.26672 46.5702 6.27539C46.4298 6.28997 46.5049 6.21598 46.3066 6.23791C46.3689 6.31829 46.4136 6.41193 46.4372 6.51155C46.4608 6.61116 46.4627 6.71409 46.4428 6.81272C46.393 6.83071 46.3406 6.8405 46.2873 6.84146C46.3232 6.86345 46.3141 6.91843 46.4059 6.93818C46.3735 6.94018 46.3425 6.95104 46.3159 6.9697C46.2475 6.99365 46.502 7.01681 46.4255 7.05226C46.3715 7.03219 46.3147 7.02287 46.2582 7.02452C46.3945 7.06759 46.3715 7.10576 46.4142 7.14701C46.3821 7.1356 46.3487 7.12992 46.3153 7.12993C46.4664 7.18077 46.2802 7.20279 46.375 7.24305L46.2761 7.22578C46.1537 7.26865 46.4847 7.25636 46.4109 7.2995C46.3747 7.28809 46.3373 7.28231 46.2999 7.28226C46.4829 7.34353 46.4185 7.41356 46.4809 7.46518C46.4685 7.46805 46.4564 7.47229 46.4449 7.4778C46.4638 7.53172 46.4071 7.57759 46.5001 7.63578C46.4533 7.65217 46.2577 7.61258 46.2923 7.66532C46.492 7.68183 46.3723 7.76696 46.5963 7.74902C46.5639 7.79496 46.486 7.86117 46.5553 7.89744C46.4779 7.87266 46.3101 7.90117 46.293 7.86391L46.1734 7.87987C46.0893 7.87042 46.2058 7.86866 46.0961 7.85522C46.1028 7.87448 46.1815 7.93771 46.1504 7.95291C46.2709 7.99717 46.4985 8.04703 46.52 8.10866C46.4436 8.07491 46.3001 8.10366 46.269 8.08426L46.6468 8.19407C46.6549 8.21718 46.4912 8.18806 46.546 8.22938C46.588 8.23462 46.6294 8.24471 46.6697 8.25952C46.6481 8.26709 46.7019 8.35201 46.5229 8.33689C46.4428 8.339 46.4829 8.3033 46.4105 8.3157C46.4226 8.35036 46.4789 8.36101 46.4788 8.39561L46.4572 8.40318C46.4248 8.41453 46.5363 8.47904 46.6474 8.46174C46.6474 8.46174 46.5296 8.45995 46.5872 8.43978C46.6448 8.4196 46.7292 8.51101 46.7328 8.54435C46.6868 8.53152 46.6402 8.52178 46.5933 8.5153C46.6913 8.55197 46.7805 8.61274 46.8532 8.69238C46.9494 8.7019 46.6832 8.65675 46.7353 8.65576C46.5986 8.70368 46.912 8.81454 46.7226 8.85062C46.7571 8.85069 46.7916 8.85287 46.826 8.85747C46.8139 8.892 46.6785 8.87457 46.7252 8.89278C46.6474 8.88977 46.7374 8.92759 46.7734 8.94958C46.8094 8.97157 46.7374 8.96217 46.7266 8.93136C46.7922 8.96889 46.9072 9.10147 46.806 9.15856C46.8559 9.16269 46.994 9.22243 46.9872 9.23777L46.8663 9.21534C46.7979 9.23929 46.8851 9.26927 46.7619 9.25191C46.9116 9.29889 46.6415 9.10387 46.7552 9.16346C46.6509 9.16543 46.9463 9.2478 46.7754 9.2212C46.7862 9.25201 46.9166 9.30145 46.809 9.3175C46.827 9.31119 46.6363 9.27427 46.6458 9.30123C46.6552 9.3282 46.7047 9.31938 46.7438 9.36189L46.7909 9.39288C46.9128 9.40639 46.7729 9.43385 46.9087 9.4295C46.8102 9.42509 46.9672 9.50414 46.7684 9.47866L46.6109 9.45592C46.619 9.47903 46.7742 9.50696 46.843 9.53042C46.8201 9.53301 46.7968 9.53242 46.7738 9.52871C47.009 9.5544 46.7499 9.57601 46.9334 9.6155C46.847 9.64576 46.9189 9.72429 46.7709 9.72857C46.8415 9.76869 46.9242 9.80884 46.8706 9.84057C46.8467 9.82443 46.8198 9.81463 46.792 9.81197C46.7236 9.83592 46.782 9.84134 46.8121 9.86971C46.7342 9.879 46.6571 9.89439 46.5818 9.91579C46.6735 9.94813 46.7687 9.96733 46.8643 9.97262C46.6227 9.97508 47.0063 10.0784 46.7931 10.0926C46.7598 10.0783 46.6793 10.033 46.6181 10.0544C46.3815 10.0595 46.7907 10.1323 46.6598 10.1739L46.8568 10.1827C46.7345 10.191 46.963 10.2666 46.7642 10.2412C46.8366 10.2633 46.6886 10.2676 46.8878 10.3059C46.7223 10.3639 46.9592 10.5101 46.629 10.5133C46.6587 10.5289 46.6411 10.548 46.7266 10.5613C46.812 10.5746 46.6488 10.5236 46.7158 10.5304C46.7158 10.5304 46.7747 10.5488 46.8003 10.5528C46.7535 10.5691 46.7354 10.5753 46.5803 10.5475C46.4615 10.5891 46.9042 10.6417 46.8236 10.7002C46.7431 10.6895 46.7152 10.6905 46.7269 10.7123L46.8585 10.7656C46.8247 10.8077 46.6742 10.7698 46.5438 10.7549C46.5546 10.7857 46.5626 10.8089 46.6557 10.8325L46.4847 10.8404C46.6084 10.836 46.5648 10.873 46.5944 10.8885L46.5648 10.8729C46.5144 10.8906 46.5391 10.9035 46.5553 10.9151C46.6055 10.9235 46.6562 10.9135 46.6988 10.8866C46.7577 10.9049 46.7402 10.924 46.809 10.9474C46.6808 10.9275 46.7154 10.9802 46.6974 10.9865C46.6794 10.9928 46.8116 11.0243 46.8058 11.0307C46.7999 11.0371 46.7935 11.0651 46.6991 11.0376C46.6991 11.0376 46.764 11.0151 46.7091 11.0084C46.6542 11.0017 46.5364 10.9997 46.6227 11.0386C46.709 11.0776 46.8821 11.0644 46.7971 11.0985C46.7638 11.0842 46.7112 11.0723 46.6658 11.058L46.5902 11.0844L46.7121 11.0981C46.6833 11.1082 46.6761 11.1106 46.655 11.0964C46.7787 11.1265 46.6792 11.1658 46.8294 11.1911C46.8375 11.2142 46.743 11.2213 46.725 11.2276C46.6567 11.2516 46.6953 11.2813 46.756 11.3162L46.7345 11.3237C46.7345 11.3237 46.7479 11.3622 46.8108 11.392C46.7208 11.4235 46.3575 11.3433 46.5063 11.3992C46.5171 11.4301 46.7203 11.48 46.799 11.474C46.7122 11.5261 46.9011 11.6156 46.7139 11.6465C46.7593 11.6609 46.7908 11.6585 46.8196 11.683C46.7628 11.7634 46.9467 11.8849 46.7051 11.922C46.6579 11.8909 46.5855 11.9033 46.5185 11.8965C46.6228 11.9292 46.4047 11.9061 46.589 11.9366C46.6561 11.9555 46.7259 11.9563 46.7919 11.9391C46.8449 11.9983 46.8403 12.0777 46.7364 12.0925C46.7754 12.0885 46.8151 12.0972 46.8502 12.1175C46.6793 12.0909 46.6501 12.1227 46.7098 12.1666L46.8124 12.1827L46.7044 12.1859C46.739 12.204 46.9221 12.2307 46.8218 12.2442C46.7833 12.2395 46.7447 12.2372 46.7062 12.2372C46.7903 12.2812 46.9332 12.3435 46.8428 12.3622L46.6863 12.3651C46.7308 12.3974 46.7847 12.4111 46.8369 12.4031C46.7658 12.4535 46.6827 12.4827 46.5957 12.4876C46.9114 12.6278 46.9127 12.7702 46.8775 12.8776L46.7992 12.8618C46.7236 12.8882 46.9328 12.8972 46.8775 12.9122C46.7927 12.9047 46.7081 12.8909 46.6247 12.871C46.5383 12.9012 46.7559 12.946 46.7874 12.9782C46.8877 12.9993 46.7244 12.9484 46.8485 12.9568C46.8841 12.9659 46.755 12.9895 46.9155 13.0327C46.8363 13.028 46.7574 13.0152 46.6799 12.9943L46.7491 13.0307C46.5647 13.0347 46.433 12.9122 46.2059 12.9096L46.2166 12.9404C46.0502 12.9382 46.0401 12.8511 45.9775 12.9032C46.0966 12.9519 46.222 12.9782 46.348 12.981C46.3709 13.0465 46.7163 13.0637 46.6964 13.1226C46.6029 13.1208 46.6789 13.0724 46.5498 13.0614C46.4207 13.0504 46.614 13.1297 46.578 13.1423C46.6609 13.1362 46.7448 13.153 46.8214 13.1911C46.7494 13.2163 46.678 13.1507 46.655 13.189C46.7468 13.2088 46.8092 13.2604 46.8776 13.2364C47.0759 13.2837 46.8092 13.2603 46.9701 13.3163C46.8267 13.3104 46.6428 13.2235 46.5663 13.2589C46.7053 13.2751 46.7501 13.3458 46.9579 13.3508C46.8787 13.3593 46.798 13.3493 46.7215 13.3213C46.6387 13.3503 46.9678 13.4253 46.6935 13.3917L46.8329 13.4206C46.7933 13.4344 46.7573 13.4471 46.6741 13.4287C46.6808 13.4479 46.8562 13.5336 46.6462 13.499C46.6462 13.499 46.6651 13.553 46.8013 13.5614C46.9376 13.5699 46.6975 13.507 46.8985 13.5274C46.7357 13.5239 46.9146 13.5736 46.969 13.6021L46.8849 13.5925C46.9146 13.6081 46.8984 13.6311 46.9829 13.6534C46.9431 13.6383 46.9011 13.6324 46.8596 13.636L46.9847 13.6701C47.04 13.7242 46.7616 13.6444 46.7948 13.6933L46.7009 13.6441C46.7009 13.6441 46.6029 13.6525 46.6326 13.6681L46.9729 13.7519C47.0179 13.788 46.8416 13.7462 46.9572 13.7878L46.8204 13.7319C46.7849 13.7227 46.632 13.7244 46.632 13.759C46.7133 13.807 46.8054 13.8289 46.8964 13.822C46.8964 13.822 46.8208 13.8486 46.7399 13.8251C46.7574 13.8752 46.8653 13.8372 46.9336 13.8824C46.8536 13.8845 46.7403 13.9069 46.6301 13.9153L46.4407 13.8476L46.4475 13.8669C46.2951 13.8122 46.3283 13.8611 46.1691 13.8217C46.1404 13.8318 46.1839 13.8641 46.2343 13.881C46.5001 13.8787 46.5828 13.9881 46.8229 14.0164C46.88 14.0872 46.2418 13.9606 46.6069 14.0921C46.6712 14.0911 46.8458 14.1511 46.7833 14.0995C46.7518 14.1365 47.0176 14.1688 46.9141 14.1964C46.8202 14.1472 46.6698 14.191 46.5363 14.121C46.6145 14.1369 46.5975 14.0996 46.5831 14.1046C46.4909 14.1067 46.3461 14.0624 46.3402 14.1034C46.3344 14.1443 46.3618 14.1649 46.485 14.1823C46.6082 14.1996 46.4716 14.1439 46.6087 14.178C46.6532 14.2359 46.4459 14.2091 46.681 14.2694C46.6689 14.2347 46.8079 14.2509 46.8983 14.2668L46.9509 14.3131L46.8627 14.2921C46.7872 14.3186 47.0233 14.3354 46.9922 14.3852L46.8122 14.379C46.6616 14.341 46.8901 14.3128 46.6401 14.2793C46.6279 14.3138 46.753 14.3479 46.6724 14.3718C46.6724 14.3718 46.6629 14.3447 46.6252 14.3407C46.5874 14.3366 46.2865 14.308 46.474 14.3936C46.5446 14.4338 46.5622 14.4147 46.6539 14.4345C46.6754 14.4961 46.7676 14.5287 46.7775 14.5685C46.5976 14.5278 46.754 14.6285 46.5706 14.5544C46.6798 14.5551 46.6795 14.4731 46.5221 14.4158C46.3648 14.3586 46.5573 14.3775 46.3419 14.3276C46.3337 14.3737 46.1223 14.3352 45.982 14.3152C45.982 14.3152 46.027 14.3514 46.0468 14.3618C46.1776 14.3894 46.1758 14.3728 46.3125 14.3941C46.2716 14.4387 46.3488 14.498 46.4599 14.5499C46.3896 14.5541 46.3188 14.5387 46.2544 14.5052C46.2678 14.536 46.2713 14.5702 46.2643 14.6024C46.2573 14.6346 46.2401 14.663 46.2155 14.683C46.4341 14.6843 46.2425 14.7602 46.4368 14.7613C46.5347 14.7381 46.6379 14.7422 46.736 14.7733C46.736 14.7733 46.6455 14.7572 46.5969 14.7569C46.7138 14.8025 46.4089 14.7623 46.587 14.821C46.5263 14.7515 46.3275 14.7607 46.1504 14.7276C46.2385 14.7832 46.0294 14.7051 46.0271 14.7448C46.0996 14.7867 46.1636 14.8438 46.215 14.9125C46.0458 14.9372 46.1905 15.0507 46.1923 15.102C46.1064 15.1105 45.9189 15.0595 45.882 15.0811C45.8451 15.1026 46.0888 15.0949 45.9953 15.1277L45.9584 15.1147C46.0029 15.138 45.8145 15.1652 46.0879 15.2424L45.8881 15.1912C45.8666 15.1988 45.8976 15.2181 45.9318 15.2234C45.8742 15.2192 45.8171 15.2074 45.7619 15.188C45.6188 15.1948 45.7847 15.2534 45.7955 15.2843L45.9169 15.285C46.0032 15.3585 45.8786 15.3718 45.9172 15.4361L45.7985 15.4086L45.8632 15.455C45.7517 15.4248 45.6734 15.4436 45.7697 15.4877L45.4918 15.3516C45.5602 15.3276 45.6307 15.4024 45.7512 15.4121C45.8717 15.4217 45.8273 15.3638 45.7229 15.3312C45.7013 15.3388 45.7311 15.3544 45.7706 15.3751C45.6809 15.3594 45.5932 15.3304 45.5102 15.289C45.5102 15.289 45.4635 15.3055 45.5197 15.3161C45.4383 15.2797 45.4303 15.2565 45.4316 15.2257C45.4923 15.2607 45.5351 15.2328 45.5819 15.251C45.4339 15.2207 45.3962 15.182 45.4412 15.1489C45.6112 15.1499 45.3432 15.0536 45.3954 15.018C45.5043 15.0479 45.61 15.0905 45.7106 15.1453C45.7826 15.1201 45.7011 15.1184 45.7933 15.1163C45.6774 15.0917 45.5647 15.0496 45.4588 14.9914L45.5663 15.0099C45.5151 14.9673 45.3549 14.937 45.3901 14.8987C45.4374 14.8438 45.4696 14.7759 45.4829 14.702L45.594 14.7192C45.3656 14.6436 45.5194 14.5983 45.4214 14.5375C45.5402 14.4959 45.3352 14.3603 45.5268 14.3537C45.4757 14.2073 45.3926 14.0851 45.4426 13.9509L45.5973 14.0005C45.4854 13.9576 45.6909 14.0023 45.6693 13.9753C45.542 13.981 45.5106 13.914 45.4148 13.8827C45.5444 13.8373 45.4186 13.7431 45.3129 13.672L45.424 13.6893C45.2244 13.6036 45.4102 13.5688 45.4493 13.5075C45.4885 13.4462 45.5999 13.5109 45.5883 13.489C45.493 13.4596 45.4044 13.4079 45.3294 13.3378C45.3399 13.309 45.3564 13.2831 45.3777 13.2622C45.399 13.2413 45.4247 13.2258 45.4527 13.2167C45.2231 13.0334 45.3936 12.9087 45.2615 12.7388L45.3893 12.746C45.1304 12.56 45.3963 12.4193 45.2651 12.2751L45.4814 12.316C45.5533 12.2908 45.4464 12.2159 45.2773 12.206C45.3493 12.1807 45.1812 12.0927 45.3633 12.0937C45.4101 12.0773 45.2653 12.0329 45.2397 11.9943C45.3297 11.9282 45.314 11.8947 45.2772 11.8125C45.3262 11.8256 45.4166 11.8415 45.4341 11.8223C45.3734 11.7874 45.5026 11.7293 45.2377 11.7227C45.3961 11.6672 45.1299 11.5182 45.3382 11.4669C45.2676 11.4613 45.2559 11.4396 45.2069 11.4265C45.2106 11.3561 45.3604 11.2992 45.2426 11.228C45.2786 11.2154 45.3641 11.2634 45.374 11.234C45.3839 11.2045 45.2813 11.2232 45.244 11.1974C45.1169 11.0647 45.3994 10.9828 45.3689 10.8724C45.2454 10.6693 45.3265 10.4854 45.3167 10.3072L45.368 10.315C45.1733 10.2319 45.5813 10.1971 45.2967 10.111C45.3471 10.0933 45.3241 10.0624 45.419 10.0681C45.2796 10.0045 45.5595 9.94981 45.3864 9.85913C45.3864 9.85913 45.3864 9.85905 45.4138 9.87971C45.5362 9.83684 45.368 9.74871 45.4872 9.68533C45.5148 9.70202 45.5449 9.71341 45.5759 9.71909C45.6731 9.68504 45.3578 9.627 45.6119 9.63742C45.6119 9.63742 45.486 9.61222 45.4936 9.62251C45.599 9.47319 45.4494 9.28782 45.3973 9.11582C45.5539 9.00908 45.8138 9.15149 45.6385 9.03132C45.6817 9.01619 45.541 9.01813 45.5945 9.021C45.5275 8.97961 45.8787 8.99059 45.7528 8.96553C45.6269 8.94046 45.667 8.93941 45.5707 8.92989C45.6778 8.86643 45.8118 8.84534 45.7021 8.79731L45.7826 8.80796C45.5537 8.71952 45.6838 8.65241 45.4176 8.57272C45.3865 8.19453 45.25 7.82719 45.2279 7.46315C45.2862 7.10982 45.1732 6.75169 45.3188 6.39373C45.5348 6.31808 45.5311 6.31932 45.4426 6.2163C45.4675 6.22269 45.4929 6.22546 45.5182 6.22446C45.3428 6.20808 45.4953 6.15893 45.3343 6.13751C45.3468 6.00578 45.3422 5.87227 45.3207 5.74034C45.3301 5.7673 45.4848 5.78214 45.4718 5.75644L45.3589 5.72251L45.4057 5.70613C45.3523 5.67761 45.2923 5.66835 45.2349 5.67963C45.0832 5.32638 45.4361 4.99523 45.3892 4.65283C45.4594 4.57635 45.3933 4.45684 45.3538 4.36691C45.5843 4.11323 45.7694 3.87968 45.5987 3.6109C45.5573 3.6081 46.0166 3.65053 46.1213 3.76517Z" fill="#CBC4F6"/>
<path d="M44.6227 8.60276C44.6916 8.55219 44.7701 8.51703 44.8534 8.49925C44.7746 8.53195 44.6942 8.57905 44.6227 8.60276Z" fill="#CBC4F6"/>
<path d="M45.1676 7.50407C45.1528 7.52204 45.1897 7.47713 45.1996 7.46515C45.2094 7.45316 45.2805 7.45541 45.2322 7.49519C45.1839 7.53496 45.205 7.49643 45.1676 7.50407Z" fill="#CBC4F6"/>
<path d="M45.1381 7.28743C45.1647 7.27592 45.1938 7.27149 45.223 7.27451C45.2522 7.27753 45.2805 7.28795 45.3056 7.30482L45.1381 7.28743Z" fill="#CBC4F6"/>
<path d="M45.368 6.98335C45.4099 6.93242 45.4562 6.93299 45.4636 6.95559C45.4324 6.96695 45.4004 6.97619 45.368 6.98335Z" fill="#CBC4F6"/>
<path d="M45.1956 7.03519C45.1956 7.03519 45.2277 6.99624 45.2548 6.96328C45.206 6.99734 45.3173 6.99457 45.1956 7.03519Z" fill="#CBC4F6"/>
<path d="M45.2466 6.55011C45.2466 6.55011 45.1673 6.54546 45.2451 6.50132C45.1909 6.53565 45.3599 6.50704 45.2466 6.55011Z" fill="#CBC4F6"/>
<path d="M45.0628 6.40707C45.0776 6.3891 45.0628 6.40707 45.0628 6.40707C45.0901 6.38608 45.124 6.37628 45.1584 6.37931L45.0628 6.40707Z" fill="#CBC4F6"/>
<path d="M43.3285 3.16682L43.3753 3.17307L43.3014 3.19978L43.3285 3.16682Z" fill="#CBC4F6"/>
<path d="M42.6486 1.71981C42.5944 1.72256 42.6953 1.66284 42.7175 1.66746C42.7397 1.67208 42.6279 1.70076 42.6486 1.71981Z" fill="#CBC4F6"/>
<path d="M41.9222 1.12473L41.9281 1.13017L41.7842 1.19775L41.9222 1.12473Z" fill="#CBC4F6"/>
<path d="M35.2791 20.3898C35.353 20.3947 35.3213 20.2498 35.3445 20.3606C35.3026 20.4115 35.2776 20.4358 35.2791 20.3898Z" fill="#CBC4F6"/>
<path d="M21.9576 11.7851C22.3902 11.6406 22.2894 12.1444 22.6313 12.1244C22.6637 12.1304 22.4704 12.2821 22.5496 12.2882C22.9281 12.2202 23.0395 12.6192 23.0508 13.0025L22.9989 13.0418C23.0033 13.1148 23.1908 13.0084 23.2105 13.0698C23.2302 13.1312 23.1616 13.1069 23.1157 13.1417C23.2166 13.0652 23.2252 13.1707 23.3086 13.1227C23.2882 13.1738 23.2157 13.244 23.1969 13.304L23.3131 13.216C23.6131 13.0294 23.4366 13.392 23.6492 13.3479C23.6205 13.3595 23.5953 13.3786 23.5759 13.4035C23.8533 13.3917 23.9924 13.5967 24.1946 13.6979C24.1406 13.7382 24.0927 13.7867 24.0521 13.8417C24.082 13.8066 24.1214 13.782 24.1655 13.7712C24.2097 13.7604 24.2565 13.7639 24.2999 13.7812C24.2056 13.9137 24.4664 13.7515 24.4519 13.8643L24.4244 13.8851C24.573 13.8031 24.4115 14.0069 24.5775 13.8964L24.5107 14.0081C24.6881 13.8737 24.4819 14.1471 24.5761 14.1012L24.6097 14.0757C24.6772 14.0652 24.6126 14.16 24.668 14.1588L24.6465 14.175C24.7459 14.1964 24.6969 14.3201 24.8151 14.1949C24.7391 14.3135 24.715 14.1791 24.6041 14.3547C24.8702 14.4491 25.1063 14.625 25.2814 14.8593C25.2669 14.915 25.2433 14.9671 25.2118 15.0137C25.2563 15.0104 25.3068 15.0691 25.3841 15.0257C25.361 15.051 25.3462 15.0834 25.3417 15.1188C25.3308 15.2033 25.5116 15.0205 25.4962 15.1187C25.442 15.1371 25.3951 15.1726 25.3617 15.2206C25.4888 15.1548 25.5193 15.2183 25.587 15.228C25.5549 15.2414 25.5265 15.2629 25.5045 15.2906C25.6539 15.2232 25.572 15.3869 25.6634 15.3635L25.5839 15.4238C25.5588 15.575 25.749 15.2987 25.7497 15.3999C25.7149 15.4163 25.6838 15.4399 25.6581 15.4694C25.8343 15.3868 25.8674 15.5142 25.9605 15.52C25.9488 15.5278 25.9376 15.5363 25.9269 15.5455C25.9964 15.5844 26.0202 15.6785 26.1241 15.6863C26.1114 15.7417 25.9477 15.8554 26.0287 15.8908C26.1637 15.7427 26.1782 15.9302 26.3058 15.7317C26.3295 15.8054 26.3536 15.9398 26.4364 15.9177C26.3722 15.9664 26.2887 16.1212 26.2401 16.0919L26.1834 16.2113C26.1192 16.26 26.1737 16.1575 26.1105 16.241C26.1268 16.2643 26.2483 16.2637 26.2432 16.3032C26.3682 16.2543 26.5587 16.1253 26.6237 16.1779C26.5401 16.2056 26.485 16.3541 26.4428 16.3607L26.7835 16.1788C26.7975 16.1987 26.6775 16.2948 26.7444 16.2899C26.7727 16.2556 26.8083 16.2286 26.8484 16.2111C26.83 16.225 26.9633 16.2614 26.836 16.4138C26.7889 16.4801 26.7729 16.4107 26.7473 16.481C26.7776 16.5242 26.8311 16.4736 26.8706 16.5099L26.8493 16.526C26.8519 16.5698 26.9801 16.5389 27.0269 16.4321C27.0129 16.4122 26.9515 16.525 26.978 16.4693C27.0697 16.3997 27.1353 16.4263 27.1747 16.4625C27.1336 16.4859 27.0956 16.5148 27.0616 16.5483C27.1688 16.5049 27.2868 16.495 27.402 16.5194C27.4784 16.4615 27.2673 16.6213 27.2924 16.5769C27.2706 16.7461 27.5655 16.5989 27.4901 16.7985C27.4901 16.7985 27.5778 16.6965 27.5617 16.7137C27.5457 16.7309 27.4882 16.8559 27.5481 16.8411C27.4839 16.8897 27.5905 16.8548 27.6313 16.8595C27.6721 16.8643 27.6007 16.8827 27.5916 16.8896C27.6706 16.8755 27.8801 16.9205 27.8729 17.0837C27.9157 17.0513 28.0559 16.9908 28.0669 17.013L27.9691 17.0871C27.935 17.1587 28.034 17.1397 27.9631 17.2189C28.1017 17.1495 27.7351 17.1676 27.864 17.131C27.8055 17.2211 28.0687 17.0624 27.9412 17.1743C27.9692 17.2142 28.1085 17.1391 28.0602 17.2571C28.0602 17.2571 27.9195 17.3637 27.9457 17.3744C27.9719 17.3851 27.9946 17.3373 28.0663 17.3593L28.1286 17.3479C28.2234 17.2761 28.1659 17.4011 28.2233 17.2761C28.1609 17.354 28.3382 17.3061 28.1932 17.4466L28.0708 17.5393C28.0871 17.5625 28.2194 17.4572 28.2844 17.4231C28.2733 17.4455 28.2596 17.4662 28.2434 17.4848C28.4144 17.3145 28.2853 17.5445 28.4306 17.4445C28.4145 17.5484 28.5216 17.5742 28.4533 17.6972C28.5355 17.6807 28.6252 17.6483 28.6288 17.727C28.6017 17.7361 28.5783 17.7539 28.5616 17.7779C28.5352 17.8539 28.5872 17.8145 28.6348 17.8089C28.6073 17.8298 28.5875 17.9618 28.5513 18.0504C28.6365 18.0111 28.7125 17.9536 28.7745 17.8812C28.6407 18.0844 28.9751 17.8667 28.8644 18.0626C28.8369 18.0834 28.7332 18.0958 28.7207 18.1715C28.5869 18.3746 28.9078 18.1111 28.8742 18.2435L29.0014 18.091C28.9376 18.2003 29.1512 18.0843 29.0062 18.2247C29.0643 18.1807 29.0201 18.3313 29.1459 18.1902C29.1144 18.3922 29.4099 18.326 29.2292 18.6359C29.2537 18.6174 29.2619 18.6824 29.3305 18.6C29.399 18.5175 29.2522 18.6286 29.3025 18.56C29.3025 18.56 29.3514 18.523 29.3697 18.5091C29.3648 18.5688 29.375 18.5967 29.2419 18.6874C29.2123 18.832 29.5266 18.5124 29.5429 18.6425C29.4818 18.6888 29.469 18.724 29.4975 18.738L29.6317 18.6821C29.6713 18.7385 29.5344 18.8372 29.439 18.9349C29.4791 18.9452 29.5048 18.9817 29.5873 18.9192L29.4985 19.073C29.5622 18.9636 29.5775 19.0387 29.6097 19.0245L29.5821 19.0454C29.5362 19.0801 29.6101 19.0852 29.6217 19.1018C29.6572 19.0597 29.6753 19.0041 29.6721 18.9466C29.718 18.9119 29.7352 18.9497 29.8003 18.9156C29.6963 18.9944 29.7749 19.0264 29.7821 19.0566C29.7892 19.0868 29.8799 18.9824 29.8932 19.0079C29.8412 19.0473 29.9259 19.0546 29.8394 19.1049C29.8211 19.1188 29.8673 19.0378 29.8137 19.0682C29.7601 19.0986 29.7079 19.2046 29.7999 19.1755C29.892 19.1465 29.9738 18.9826 29.96 19.0898C29.9218 19.113 29.8859 19.1402 29.8529 19.1709L29.8467 19.2621L29.9384 19.1926C29.917 19.2088 29.9078 19.2158 29.8956 19.225C29.9965 19.1486 29.982 19.2614 30.0905 19.169C30.1068 19.1923 30.0767 19.2761 30.0869 19.304C30.0629 19.3832 30.1358 19.3738 30.2032 19.343L30.1818 19.3593C30.1818 19.3593 30.2344 19.4008 30.2995 19.3667C30.2672 19.4676 29.9938 19.7054 30.1355 19.6336C30.1635 19.6735 30.3416 19.5335 30.374 19.4529C30.3773 19.5777 30.582 19.509 30.5104 19.7007C30.5471 19.6729 30.5715 19.6543 30.596 19.6358C30.6539 19.765 30.8843 19.7328 30.7986 19.9911C30.7395 20.0003 30.7038 20.0629 30.6681 20.1255C30.7537 20.0607 30.6152 20.2371 30.7503 20.1092C30.8243 20.0277 30.8647 19.9918 30.8666 19.9344C30.8893 19.9339 30.9122 19.9393 30.933 19.9502C30.9538 19.9611 30.9719 19.9772 30.9858 19.9969C30.9996 20.0167 31.0087 20.0394 31.0123 20.0633C31.0159 20.0872 31.0139 20.1114 31.0065 20.1338C31.0149 20.115 31.0277 20.0989 31.0436 20.0867C31.0596 20.0746 31.0784 20.0668 31.0982 20.0643C30.9753 20.1828 30.9951 20.2444 31.0657 20.2316L31.1513 20.1667L31.0944 20.2657C31.1219 20.2449 31.2687 20.1337 31.2186 20.2225C31.1921 20.2503 31.1678 20.2806 31.1462 20.3129C31.2383 20.2839 31.3839 20.2245 31.3546 20.3229L31.2758 20.4642C31.3025 20.4614 31.3276 20.4513 31.349 20.435C31.3704 20.4188 31.3874 20.397 31.3981 20.3715C31.3875 20.4966 31.4171 20.5454 31.3418 20.6584C31.6676 20.5286 31.8177 20.6691 31.9133 20.8053L31.8491 20.854C31.8298 20.9399 31.9623 20.7683 31.9458 20.8316C31.9294 20.895 31.8555 20.9765 31.7674 21.0178C31.7536 21.1249 31.9185 20.9796 31.9708 20.9807C32.0534 20.9181 31.9041 21.0057 32.0011 20.917C32.0286 20.8961 32.002 21.0384 32.1203 20.9335C32.0704 20.9976 32.0131 21.0548 31.9495 21.1037L32.0277 21.075C31.9313 21.2447 31.7259 21.2323 31.6036 21.4318L31.6437 21.4423C31.5533 21.5871 31.4505 21.5073 31.4728 21.6125C31.5928 21.5625 31.695 21.4763 31.7669 21.3642C31.8548 21.3893 32.0727 21.1325 32.1123 21.189C32.063 21.2722 32.0481 21.151 31.9705 21.2607C31.8929 21.3703 32.0745 21.2685 32.0695 21.3283C32.0903 21.2904 32.1184 21.2577 32.152 21.2322C32.1857 21.2067 32.2242 21.189 32.2652 21.18C32.2459 21.2659 32.146 21.2703 32.1748 21.3248C32.2482 21.2692 32.3296 21.2583 32.3522 21.1904C32.5143 21.0676 32.3545 21.2803 32.4876 21.1897C32.4031 21.3096 32.2185 21.3935 32.2214 21.4778C32.3128 21.3678 32.4107 21.4005 32.5272 21.2461C32.4939 21.3213 32.4387 21.3827 32.3693 21.4217C32.3354 21.5135 32.6075 21.3073 32.4322 21.5114L32.5453 21.4257C32.5234 21.4678 32.5076 21.5053 32.4681 21.5759C32.4868 21.6024 32.6776 21.5139 32.5311 21.6656C32.5494 21.6517 32.5984 21.7215 32.6812 21.5926C32.7135 21.4918 32.5684 21.6321 32.6894 21.4641C32.599 21.6089 32.7536 21.502 32.8088 21.4805L32.7561 21.5458C32.7836 21.5249 32.8048 21.5751 32.8728 21.5185C32.8349 21.5381 32.8052 21.5714 32.7889 21.6126L32.8899 21.5361C32.9806 21.5386 32.7466 21.7057 32.8183 21.7277L32.7148 21.7605C32.7301 21.7489 32.6694 21.8559 32.7193 21.8537C32.8111 21.7841 32.9242 21.6984 32.9945 21.6451C33.0648 21.5918 32.917 21.7549 33.0272 21.6917L32.9 21.7575C32.8694 21.7807 32.7882 21.9185 32.8254 21.9515C32.8625 21.9844 33.0246 21.8616 33.0394 21.7893C33.0534 21.8092 33.0331 21.8804 32.9605 21.9303C33.0251 21.9424 33.042 21.8329 33.1195 21.8099C33.08 21.8805 33.0449 22.0039 32.995 22.1129L32.8243 22.2169L32.8429 22.2433C32.7175 22.3383 32.7776 22.3438 32.6485 22.4468C32.6441 22.4806 32.7047 22.4602 32.7476 22.448C32.8834 22.2076 33.0534 22.2162 33.1983 22.0555C33.3084 22.079 32.8381 22.5167 33.1618 22.3172C33.1937 22.2626 33.3545 22.1714 33.2638 22.1689C33.2834 22.2303 33.4533 22.0253 33.435 22.146C33.3338 22.182 33.302 22.3636 33.1524 22.4108C33.2166 22.3622 33.1674 22.3386 33.1444 22.3459C33.1004 22.4301 32.9734 22.5161 33.0175 22.559C33.0617 22.6019 33.0924 22.5989 33.1732 22.5071C33.254 22.4153 33.1429 22.464 33.2377 22.3922C33.3209 22.4106 33.1844 22.5699 33.3724 22.4173C33.3308 22.398 33.4168 22.2869 33.4832 22.2213L33.5608 22.2184L33.4873 22.2741C33.4982 22.3829 33.6189 22.1745 33.6564 22.2479L33.5584 22.4086C33.4361 22.5012 33.5266 22.2698 33.3612 22.4613C33.3939 22.5078 33.4894 22.4305 33.4816 22.5127C33.4633 22.5266 33.4432 22.5113 33.4171 22.5209C33.391 22.5304 33.2077 22.7965 33.3954 22.7102C33.4759 22.6848 33.4657 22.657 33.5422 22.599C33.617 22.639 33.7005 22.5911 33.7491 22.6204C33.6054 22.7293 33.8051 22.7001 33.6328 22.795C33.6867 22.6982 33.5953 22.6148 33.4523 22.718C33.3245 22.8963 33.4311 22.6477 33.2631 22.7953C33.3027 22.8518 33.1569 22.9978 33.0655 23.1078C33.0771 23.1244 33.1246 23.0986 33.1476 23.0913C33.2515 23.0126 33.2276 22.9851 33.323 22.8874C33.3482 22.97 33.4504 22.9688 33.5661 22.9067C33.5412 22.9713 33.4411 23.0623 33.4125 23.0484C33.4531 23.0714 33.4885 23.1038 33.516 23.1429C33.5435 23.1821 33.5624 23.2271 33.5711 23.2743C33.685 23.0761 33.672 23.3047 33.7692 23.1496C33.7911 23.042 33.8515 22.9491 33.938 22.8895C33.9543 22.9127 33.8647 22.9451 33.8466 22.9995C33.9445 22.9253 33.7549 23.1758 33.9002 23.0759C33.7941 23.0647 33.7062 23.2533 33.5787 23.3653C33.6869 23.3392 33.4839 23.4371 33.532 23.4923C33.6224 23.4673 33.7182 23.4662 33.811 23.4894C33.7578 23.6671 33.9537 23.6459 34.0079 23.6965C33.9748 23.7827 33.8242 23.9019 33.8308 23.9579C33.8373 24.014 33.9501 23.781 33.9286 23.8838L33.898 23.907C33.9347 23.8792 33.901 24.0981 34.1064 23.917L33.9413 24.0421C33.926 24.0537 33.9774 24.0401 34.0004 24.0329C33.9678 24.0811 33.9269 24.1224 33.8798 24.1548C33.8101 24.2891 33.9587 24.207 33.9958 24.2399L34.0573 24.1272C34.1825 24.1188 34.1412 24.2469 34.2229 24.2765L34.1281 24.3484L34.2103 24.3318C34.1185 24.4013 34.1016 24.4906 34.185 24.4427L33.8967 24.5592C33.92 24.4856 34.0129 24.4712 34.0906 24.3817C34.1684 24.2923 34.0729 24.263 33.9859 24.3391C34.0045 24.3657 34.0021 24.3623 34.0634 24.3362C33.9506 24.4625 33.932 24.4359 33.8433 24.5031C33.8433 24.5031 33.8384 24.5628 33.8666 24.5363C33.7993 24.5873 33.7584 24.5624 33.7212 24.5294C33.7903 24.5077 33.7821 24.4427 33.8242 24.4159C33.708 24.5039 33.6566 24.5174 33.6414 24.4424C33.7302 24.2886 33.4875 24.4367 33.4708 24.3527C33.5606 24.2809 33.6629 24.2275 33.7726 24.1954C33.795 24.1071 33.7446 24.1556 33.7578 24.0743C33.6678 24.1549 33.5644 24.2176 33.4524 24.2598L33.5264 24.1784C33.4519 24.1789 33.3521 24.3104 33.3161 24.2257C33.2722 24.1237 33.2136 24.029 33.1424 23.945L33.2165 23.8636C33.0299 24.0049 33.0446 23.8054 32.9279 23.8328C32.926 23.6765 32.6896 23.7336 32.7844 23.5549C32.5972 23.5043 32.4285 23.3906 32.3045 23.2315L32.4329 23.1342C32.3382 23.206 32.4823 23.051 32.4422 23.0407C32.3824 23.1623 32.2937 23.1226 32.2095 23.1762C32.2322 23.0217 32.0594 23.0357 31.9243 23.0567L31.9981 22.9752C31.8019 23.0627 31.8605 22.8657 31.8128 22.7644C31.8465 22.739 31.8956 22.6356 31.8694 22.6249C31.7759 22.6765 31.6712 22.7034 31.5639 22.7036C31.5146 22.6345 31.4903 22.5498 31.4953 22.4656C31.1726 22.4862 31.1289 22.2038 30.8686 22.1466L30.9455 22.0426C30.6044 22.0771 30.59 21.6962 30.3629 21.6596L30.5372 21.5275C30.5434 21.4363 30.4038 21.4709 30.3048 21.5968C30.3111 21.5055 30.1301 21.5614 30.2273 21.4063C30.2175 21.3323 30.109 21.4245 30.0505 21.4079C30.0509 21.3566 30.0351 21.3058 30.0056 21.2637C29.976 21.2216 29.9343 21.1904 29.8872 21.1752L29.9059 21.2018C29.9456 21.1717 30.0191 21.1163 30.0049 21.0761C29.9343 21.0889 29.9368 20.919 29.7839 21.1417C29.807 20.941 29.5017 21.0197 29.5692 20.7955C29.5141 20.8372 29.5019 20.8465 29.4621 20.8767C29.3862 20.8019 29.4078 20.6123 29.2666 20.6379C29.277 20.5995 29.3644 20.5639 29.3434 20.534C29.3224 20.5041 29.2701 20.5896 29.2364 20.615C29.0225 20.5838 29.0893 20.2585 28.9548 20.167C28.7144 20.0313 28.4999 19.848 28.3234 19.6277L28.3631 19.5976C28.16 19.6752 28.3608 19.2939 28.1022 19.4593C28.1203 19.405 28.0532 19.3896 28.1449 19.3201C27.9923 19.3696 28.0992 19.0748 27.899 19.1298C27.899 19.1298 27.899 19.1298 27.9265 19.1089C27.9361 18.949 27.7612 19.0002 27.7447 18.8499C27.7775 18.8451 27.8079 18.8307 27.8328 18.8085C27.8735 18.7064 27.609 18.8967 27.7582 18.7022C27.7442 18.6823 27.6542 18.781 27.6634 18.7741C27.5654 18.5277 27.2743 18.4532 27.061 18.3094C27.0423 18.0692 27.35 17.9939 27.1196 18.026C27.1563 17.9982 27.0432 18.0839 27.083 18.0538C26.9962 18.0636 27.2201 17.7819 27.1007 17.852C26.9813 17.9221 27.0303 17.9053 26.9569 17.961C26.9495 17.8037 27.0333 17.6894 26.8897 17.7117L26.954 17.663C26.724 17.7558 26.7303 17.5779 26.4844 17.7082C26.0641 17.3295 25.5876 17.0443 25.1849 16.6573C24.8464 16.2217 24.3967 15.9214 24.1239 15.4258C24.1842 15.1714 24.1736 15.1695 24.0157 15.1314C24.0462 15.1082 24.0523 15.1036 24.0768 15.085C23.9478 15.2082 23.9964 15.0239 23.8688 15.1358C23.7399 14.9807 23.5986 14.8373 23.4466 14.7076C23.4812 14.7169 23.5951 14.6256 23.5658 14.6172L23.4601 14.6668L23.4968 14.639C23.4669 14.6425 23.4387 14.6539 23.4146 14.6722C23.3906 14.6904 23.3715 14.7147 23.3592 14.7432C22.8897 14.468 22.7812 13.8328 22.3957 13.4837C22.3616 13.3417 22.1979 13.2621 22.0891 13.2072C21.9803 12.7451 21.8734 12.3526 21.48 12.1724C21.4252 12.0409 21.7775 11.7486 21.9576 11.7851Z" fill="#CBC4F6"/>
<path d="M35.2228 20.3382C35.2563 20.2532 35.2451 20.185 35.3333 20.103C35.3011 20.1839 35.2642 20.2624 35.2228 20.3382Z" fill="#CBC4F6"/>
<path d="M34.6801 18.8697C34.6629 18.8907 34.6821 18.8295 34.686 18.812C34.6899 18.7946 34.7402 18.746 34.7372 18.8065C34.7342 18.8669 34.7048 18.8398 34.6801 18.8697Z" fill="#CBC4F6"/>
<path d="M34.448 18.6457C34.468 18.6197 34.4942 18.5998 34.5241 18.5878C34.5539 18.5757 34.5867 18.572 34.619 18.5769L34.448 18.6457Z" fill="#CBC4F6"/>
<path d="M34.3782 18.2016C34.391 18.1292 34.4156 18.0992 34.4447 18.1207C34.4255 18.1503 34.4032 18.1775 34.3782 18.2016Z" fill="#CBC4F6"/>
<path d="M34.2676 18.3473C34.2499 18.3309 34.2622 18.2843 34.2745 18.2378C34.239 18.2999 34.345 18.2342 34.2676 18.3473Z" fill="#CBC4F6"/>
<path d="M33.8685 17.7906C33.8685 17.7906 33.7896 17.8232 33.8211 17.747C33.8044 17.8052 33.9365 17.6952 33.8685 17.7906Z" fill="#CBC4F6"/>
<path d="M33.5578 17.7519C33.5578 17.7519 33.5578 17.7519 33.5401 17.7355C33.5223 17.7192 33.5992 17.6636 33.6041 17.6576L33.5578 17.7519Z" fill="#CBC4F6"/>
<path d="M29.0028 15.0044L29.0476 14.9877L29.0043 15.0531L29.0028 15.0044Z" fill="#CBC4F6"/>
<path d="M27.0753 13.6925C27.0231 13.7182 27.0932 13.6142 27.0976 13.6025C27.1021 13.5908 27.0389 13.68 27.0753 13.6925Z" fill="#CBC4F6"/>
<path d="M25.8294 13.3247L25.8407 13.3299L25.752 13.4693L25.8294 13.3247Z" fill="#CBC4F6"/>
<path d="M27.2789 34.5201C27.3282 34.4918 27.28 34.3735 27.3233 34.4661C27.3666 34.5587 27.2863 34.5743 27.2789 34.5201Z" fill="#CBC4F6"/>
<path d="M16.1903 32.1215C16.3875 31.7239 16.4983 32.1893 16.6845 31.9501C16.6993 31.9321 16.647 32.1788 16.6918 32.1306C16.884 31.8337 17.0761 32.0739 17.2101 32.3657L17.1909 32.427C17.2175 32.4831 17.2893 32.2754 17.3169 32.3114C17.3082 32.3504 17.3017 32.3902 17.2973 32.4302C17.3244 32.3025 17.3697 32.3864 17.4081 32.2954C17.413 32.3526 17.3972 32.4538 17.408 32.5164L17.4499 32.3707C17.5564 32.0265 17.577 32.4246 17.6825 32.2584C17.6703 32.2875 17.6637 32.319 17.6632 32.3513C17.8184 32.1625 17.9604 32.23 18.1087 32.1823C18.0908 32.2492 18.0793 32.318 18.0746 32.3878C18.1047 32.2313 18.1539 32.2029 18.1953 32.1779C18.1849 32.3421 18.2939 32.0581 18.3091 32.1406L18.2869 32.1675C18.3436 32.0039 18.3204 32.2721 18.3683 32.0687L18.3687 32.2007C18.4175 31.9771 18.3987 32.3284 18.4411 32.22L18.4451 32.171C18.4845 32.1231 18.4751 32.2355 18.4953 32.2173C18.5446 32.1574 18.5751 32.2907 18.5816 32.1124C18.5776 32.2562 18.5299 32.1754 18.5175 32.3799C18.72 32.2347 18.8949 32.3063 19.0595 32.3525C19.069 32.4084 19.073 32.465 19.0713 32.5213C19.0959 32.4913 19.1402 32.5006 19.1649 32.4074C19.1649 32.4074 19.1648 32.5021 19.1712 32.5133C19.1776 32.5244 19.2338 32.3235 19.2574 32.4084C19.234 32.461 19.2205 32.5182 19.2175 32.577C19.2687 32.4451 19.3037 32.4721 19.3382 32.4301C19.3233 32.4611 19.3133 32.4946 19.3087 32.5293C19.3693 32.3798 19.3677 32.5837 19.4219 32.4862L19.3979 32.5851C19.4314 32.7213 19.4422 32.3733 19.494 32.4683C19.4794 32.5033 19.4696 32.5404 19.4653 32.5788C19.5372 32.4028 19.5983 32.4802 19.6535 32.4257C19.6455 32.434 19.638 32.4431 19.6313 32.4527C19.6821 32.4415 19.7112 32.5262 19.7881 32.4391C19.8004 32.4872 19.7442 32.6882 19.8018 32.6623C19.8304 32.4569 19.8993 32.5942 19.9058 32.3527C19.9471 32.3908 20.0019 32.4885 20.0398 32.4234C20.0083 32.4997 20.0239 32.6826 19.9865 32.6903L19.9924 32.8221C19.9752 32.9063 19.9628 32.7948 19.9632 32.8953C19.9632 32.8953 20.0347 32.8084 20.0579 32.856C20.1101 32.7357 20.1777 32.5083 20.2363 32.4938C20.1845 32.5567 20.2151 32.7218 20.1934 32.7545L20.327 32.3773C20.3394 32.3623 20.3082 32.5391 20.3422 32.4914C20.3478 32.4464 20.3606 32.4029 20.3801 32.363C20.3801 32.363 20.4615 32.3274 20.4383 32.5325C20.4344 32.6131 20.4063 32.5714 20.4126 32.6457C20.4333 32.6648 20.4619 32.5858 20.4945 32.5842L20.4797 32.6021C20.5063 32.6266 20.5461 32.5212 20.5506 32.4147C20.5358 32.4011 20.5393 32.5359 20.5112 32.4627C20.5447 32.3461 20.589 32.3238 20.622 32.3278C20.6068 32.3734 20.5944 32.42 20.5851 32.4675C20.6302 32.3724 20.6969 32.2913 20.7797 32.2308C20.793 32.1325 20.7344 32.3996 20.7354 32.3479C20.7807 32.4949 20.8956 32.1848 20.9216 32.3931C20.9093 32.4081 20.9369 32.2544 20.931 32.2806C20.9251 32.3067 20.9393 32.441 20.9679 32.3936C20.956 32.4775 20.9901 32.3666 21.0098 32.3426C21.0295 32.3187 21.0107 32.3857 20.9802 32.3786C21.027 32.3217 21.1536 32.2119 21.2033 32.3472C21.2092 32.2895 21.2738 32.1542 21.2857 32.165L21.261 32.2897C21.2649 32.3671 21.3152 32.287 21.3004 32.3997C21.3585 32.2532 21.1571 32.5046 21.2182 32.3924C21.2142 32.5046 21.3108 32.204 21.2738 32.3753C21.2945 32.3943 21.3576 32.2418 21.3684 32.3676C21.3536 32.354 21.3177 32.5367 21.3448 32.5354C21.3719 32.534 21.364 32.4741 21.4163 32.4485L21.4507 32.4065C21.4729 32.2848 21.4832 32.4364 21.4951 32.2894C21.4822 32.3934 21.567 32.2398 21.53 32.4427L21.5003 32.6049C21.5357 32.5305 21.5637 32.4521 21.5837 32.371C21.5844 32.3961 21.583 32.4214 21.5793 32.446C21.6183 32.2028 21.6177 32.4813 21.6719 32.289C21.699 32.3824 21.7723 32.3184 21.7669 32.4766C21.8162 32.4167 21.8493 32.3261 21.8764 32.3879C21.8606 32.4103 21.8498 32.4363 21.8449 32.4641C21.8572 32.5439 21.8684 32.4859 21.8975 32.4442C21.9039 32.5263 21.9145 32.6081 21.9294 32.6894C21.967 32.5997 21.99 32.5036 21.9975 32.4047C21.9891 32.6549 22.1083 32.2698 22.1038 32.5026C22.0705 32.553 22.0548 32.6146 22.0591 32.6772C22.0507 32.9275 22.1399 32.5094 22.1669 32.6344L22.1877 32.4324C22.1877 32.5587 22.2715 32.3305 22.2345 32.5333C22.2611 32.4631 22.2793 32.6115 22.303 32.4122C22.3512 32.5935 22.4961 32.3479 22.4892 32.71C22.5089 32.686 22.5157 32.7345 22.5355 32.6158C22.5552 32.497 22.4837 32.6787 22.5054 32.6144C22.5271 32.5501 22.5222 32.5562 22.5281 32.5301C22.534 32.5039 22.5611 32.5973 22.5148 32.7547C22.5483 32.8908 22.6177 32.4336 22.6689 32.5229C22.7201 32.6121 22.6542 32.6356 22.6754 32.6288L22.7345 32.4937C22.7729 32.529 22.729 32.6835 22.7113 32.8251C22.731 32.8011 22.7625 32.8196 22.795 32.7232L22.797 32.904C22.7965 32.772 22.8281 32.8221 22.8419 32.7927L22.8222 32.8166C22.8192 32.8771 22.8517 32.8438 22.8547 32.8465C22.8606 32.7937 22.8532 32.7396 22.833 32.6897C22.8527 32.6341 22.8675 32.6478 22.8946 32.5833C22.868 32.7167 22.9143 32.6856 22.932 32.7019C22.9497 32.7182 22.9739 32.5878 22.9798 32.5932C22.9857 32.5986 23.0065 32.6177 22.9788 32.7081C22.9665 32.7231 22.9725 32.6339 22.9582 32.6891C22.9439 32.7444 22.9433 32.865 22.9852 32.7825C23.0271 32.7 23.0192 32.5137 23.0462 32.6071C23.0241 32.634 23.0212 32.6945 23.006 32.7384L23.0344 32.8173L23.0537 32.6929C23.0529 32.7135 23.05 32.7337 23.0453 32.7535C23.0778 32.6255 23.1108 32.7244 23.1419 32.5792C23.1542 32.5643 23.1666 32.6757 23.1843 32.6921C23.1936 32.7691 23.2255 32.7301 23.262 32.6478L23.2472 32.6658C23.2472 32.6658 23.2906 32.6636 23.3088 32.5909C23.3255 32.6906 23.2487 33.062 23.3063 32.9097C23.3364 32.9111 23.3882 32.6903 23.3867 32.61C23.4305 32.7082 23.5257 32.5168 23.5458 32.7196C23.5513 32.6811 23.5638 32.6444 23.5828 32.6115C23.6567 32.6795 23.7749 32.5042 23.8049 32.7582C23.768 32.8032 23.7857 32.8827 23.7754 32.9521C23.8099 32.847 23.7803 33.0725 23.8246 32.8922C23.8394 32.7794 23.8483 32.7244 23.8305 32.6765C23.8128 32.6286 23.9636 32.641 23.9758 32.7524C23.9704 32.7102 23.9794 32.6681 24.0011 32.6335C23.97 32.8102 24.003 32.8458 24.039 32.7894L24.0567 32.6794L24.0586 32.797C24.0808 32.77 24.1045 32.5708 24.1168 32.6821C24.1096 32.7201 24.1057 32.7587 24.105 32.7976C24.1469 32.7151 24.208 32.5713 24.2159 32.6628L24.2163 32.8264C24.2328 32.805 24.2445 32.7799 24.2506 32.7528C24.2567 32.7258 24.2572 32.6974 24.2518 32.6696C24.2937 32.7766 24.3252 32.795 24.3183 32.9361C24.4597 32.6188 24.5646 32.6365 24.6907 32.679L24.676 32.7601C24.6912 32.8426 24.7075 32.6207 24.7326 32.6912C24.7259 32.7802 24.7125 32.8682 24.6927 32.9544C24.7198 33.0478 24.7631 32.8245 24.7957 32.7913C24.8282 32.758 24.766 32.8588 24.7897 32.7227C24.8119 32.6957 24.833 32.8152 24.8513 32.6478C24.8453 32.7314 24.8314 32.8139 24.8099 32.894L24.8616 32.8311C24.8621 33.0263 24.7424 33.1529 24.7384 33.3914L24.758 33.3675C24.7541 33.5428 24.6729 33.5471 24.7196 33.6165C24.7677 33.4968 24.7944 33.3679 24.7985 33.2362C24.8581 33.2016 24.8798 32.8531 24.9311 32.8792C24.934 32.9767 24.8834 32.8932 24.876 33.0285C24.8686 33.1638 24.9326 32.9596 24.9538 33.016C24.9499 32.9276 24.9677 32.8406 25.0055 32.7634C25.0207 32.8459 24.9641 32.9149 25.0015 32.9388C25.0207 32.8459 25.07 32.786 25.0473 32.7125C25.0922 32.5064 25.0803 32.7797 25.1237 32.6196C25.1178 32.7721 25.0331 32.9573 25.0646 33.039C25.0795 32.8947 25.1469 32.8568 25.1554 32.6382C25.1631 32.721 25.1535 32.8039 25.1273 32.8808C25.1381 32.975 25.2257 32.6346 25.1804 32.9297L25.2115 32.7846C25.2105 32.8363 25.2163 32.8733 25.2178 32.9537C25.2325 32.9673 25.3164 32.7707 25.271 33.0027C25.2858 32.9847 25.3282 33.0027 25.3336 32.8445C25.3169 32.7449 25.2828 32.9504 25.2947 32.7401C25.2932 32.9125 25.3425 32.7262 25.3563 32.6652L25.3445 32.7493C25.3667 32.7223 25.3819 32.7416 25.416 32.6624C25.4011 32.7024 25.3955 32.7459 25.3996 32.7895L25.4297 32.6645C25.479 32.6045 25.406 32.8953 25.4523 32.8642L25.406 32.9585C25.4208 32.9405 25.4123 33.0644 25.439 33.0257C25.4641 32.9067 25.4987 32.7701 25.5209 32.68C25.5431 32.5898 25.5105 32.8125 25.5475 32.7044L25.4967 32.842C25.4745 32.869 25.4868 33.0435 25.5168 33.0449C25.5634 32.9627 25.5846 32.8665 25.5775 32.769C25.5775 32.769 25.6061 32.848 25.5809 32.9354C25.6154 32.8935 25.5943 32.8055 25.6347 32.7374C25.6361 32.8178 25.6603 32.9399 25.6652 33.0603L25.6026 33.2502L25.6173 33.2638C25.568 33.4184 25.6143 33.3873 25.5768 33.5529C25.5946 33.5692 25.6039 33.5199 25.631 33.487C25.6291 33.2114 25.7336 33.1286 25.7588 32.8832C25.813 32.8173 25.7045 33.4862 25.8223 33.1155C25.8218 33.0467 25.88 32.8686 25.8337 32.9312C25.8662 32.9612 25.8919 32.6899 25.9322 32.8113C25.8859 32.9056 25.9296 33.067 25.8626 33.2053C25.8774 33.1242 25.8459 33.1373 25.8242 33.17C25.8025 33.2027 25.7857 33.4189 25.8217 33.4257C25.8576 33.4324 25.8799 33.4055 25.8962 33.2783C25.9125 33.1511 25.8587 33.286 25.8933 33.1493C25.9351 33.0983 25.9217 33.323 25.9769 33.079C25.9572 33.1029 25.9602 32.9477 25.9735 32.8493L26.0154 32.7984L25.9963 32.8914C26.0381 32.9668 26.0362 32.7228 26.0972 32.7686L26.0918 32.9583C26.0563 33.1152 26.0272 32.8725 25.9981 33.1353C26.0247 33.1597 26.0617 33.0201 26.0819 33.0966C26.0819 33.0966 26.0621 33.1206 26.0473 33.1386C26.0326 33.1566 26.0182 33.4961 26.097 33.3054C26.1315 33.2319 26.1163 33.2125 26.1326 33.1169C26.1883 33.0998 26.2238 33.0062 26.2583 32.9958C26.2228 33.1843 26.3056 33.0393 26.2469 33.2117C26.2479 33.0968 26.1686 33.0922 26.1213 33.2698C26.1109 33.4972 26.0829 33.2344 26.042 33.4547C26.0838 33.467 26.0484 33.687 26.0336 33.8313C26.0336 33.8313 26.068 33.7894 26.0828 33.7714C26.1065 33.6353 26.0901 33.636 26.1109 33.4971C26.1552 33.5379 26.2099 33.4777 26.2414 33.3383C26.2486 33.4127 26.2361 33.4869 26.2054 33.5527C26.2345 33.5419 26.2666 33.5414 26.2968 33.5513C26.3271 33.5611 26.354 33.5807 26.3735 33.6073C26.3701 33.3778 26.438 33.5668 26.4434 33.377C26.4196 33.2724 26.4226 33.1642 26.4519 33.0636C26.4696 33.0799 26.4355 33.1591 26.437 33.2078C26.4789 33.0937 26.4434 33.4085 26.4957 33.225C26.439 33.2939 26.4425 33.4919 26.406 33.6689C26.4725 33.588 26.3867 33.7933 26.4227 33.8001C26.4599 33.7252 26.5129 33.6607 26.5778 33.6113C26.6039 33.7881 26.7084 33.6421 26.7547 33.6426C26.7656 33.7368 26.7197 33.9315 26.7418 33.9677C26.764 34.0039 26.7509 33.7548 26.7838 33.8536L26.7616 33.8806C26.7912 33.8447 26.8237 34.0326 26.8725 33.7458L26.8281 33.9577C26.8281 33.9577 26.8503 33.9307 26.8651 33.9127C26.8644 33.974 26.8549 34.0346 26.837 34.0922C26.8419 34.2441 26.8984 34.0804 26.9285 34.0817L26.928 33.9497C26.997 33.8658 27.0138 33.997 27.0705 33.9596L27.0513 34.0841L27.1005 34.0242C27.0754 34.1432 27.0906 34.2258 27.1231 34.1294L26.9979 34.4142C26.9886 34.3372 27.0458 34.274 27.0513 34.1474C27.0567 34.0208 27.0029 34.0607 26.9778 34.1797C26.9955 34.196 26.9778 34.1797 27.0196 34.1288C27.0055 34.2228 26.9796 34.314 26.9423 34.3998C26.9423 34.3998 26.9576 34.4507 26.9423 34.3998C26.9138 34.4788 26.8931 34.4913 26.866 34.4927C26.9078 34.4418 26.8704 34.3862 26.8852 34.3366C26.8601 34.4872 26.8255 34.5292 26.7792 34.4655C26.7773 34.2847 26.6955 34.5673 26.6546 34.5033C26.6798 34.3897 26.7188 34.2807 26.7709 34.1787C26.7531 34.0992 26.7532 34.1624 26.7202 34.0952C26.6987 34.2161 26.662 34.3328 26.6112 34.4424L26.6231 34.327C26.5812 34.3779 26.5575 34.5456 26.5216 34.5072C26.469 34.4526 26.4034 34.4142 26.3324 34.3962L26.3442 34.2807C26.2801 34.5165 26.2305 34.3498 26.1763 34.4473C26.1221 34.3237 26.0088 34.5246 25.9995 34.3212C25.8659 34.3825 25.7461 34.4459 25.6235 34.3803L25.6693 34.2173C25.6304 34.3341 25.6694 34.1225 25.6437 34.141C25.6501 34.2785 25.5871 34.3048 25.5546 34.4012C25.5181 34.2624 25.4255 34.3875 25.3555 34.4916L25.3728 34.3759C25.2895 34.5782 25.256 34.379 25.2004 34.333C25.1447 34.287 25.2004 34.1751 25.1821 34.1846C25.152 34.2821 25.1021 34.3707 25.0357 34.4447C25.0072 34.4319 24.9818 34.4121 24.9616 34.3871C24.9415 34.3621 24.9272 34.3326 24.92 34.3011C24.7376 34.5228 24.6264 34.3361 24.4604 34.4622L24.4679 34.327C24.2708 34.5667 24.154 34.2855 24.0121 34.4075L24.0609 34.1839C24.0323 34.1049 23.9638 34.226 23.9505 34.3875C23.9249 34.3113 23.8387 34.4794 23.8441 34.2896C23.8027 34.2515 23.7726 34.3765 23.748 34.4065C23.682 34.3036 23.6504 34.3166 23.5741 34.3463L23.5889 34.36C23.6085 34.3093 23.6149 34.2534 23.6076 34.1981C23.5633 34.2521 23.516 34.1138 23.5017 34.3902C23.449 34.2206 23.3026 34.4807 23.2588 34.256C23.2548 34.3028 23.2411 34.3477 23.2185 34.3873C23.1525 34.3792 23.1028 34.2123 23.0284 34.3281C23.0249 34.288 23.0666 34.2055 23.041 34.1924C23.0154 34.1793 23.0249 34.288 22.9983 34.3267C22.8667 34.4425 22.7943 34.1389 22.6894 34.1528C22.4943 34.2574 22.3189 34.1487 22.1465 34.1373L22.1553 34.0822C22.0686 34.2761 22.0559 33.8431 21.9622 34.1465C21.9573 34.0893 21.9179 34.1057 21.9421 34.0069C21.8751 34.1452 21.8357 33.8457 21.7415 34.017C21.7415 34.017 21.7416 34.017 21.7637 33.99C21.714 33.8547 21.6292 34.0084 21.578 33.8875C21.5951 33.8589 21.6071 33.8272 21.6134 33.7938C21.6016 33.6881 21.5179 34.0112 21.5485 33.734C21.5485 33.734 21.5189 33.8645 21.5292 33.8583C21.3903 33.7303 21.2027 33.8577 21.0362 33.8834C20.9446 33.7042 21.0963 33.4438 20.978 33.6192C20.9761 33.5647 20.9538 33.718 20.9509 33.6521C20.9016 33.7121 20.9411 33.3483 20.8953 33.4798C20.8495 33.6114 20.8647 33.5675 20.8514 33.6658C20.7977 33.5479 20.8066 33.3982 20.7317 33.5082L20.749 33.424C20.6489 33.6531 20.5929 33.5067 20.4987 33.7728C20.1347 33.7481 19.7715 33.8296 19.4198 33.79C19.0853 33.6662 18.7336 33.7213 18.4099 33.5023C18.3592 33.2608 18.3519 33.2698 18.2415 33.3472C18.2612 33.3232 18.2685 33.3142 18.2567 33.2717C18.2232 33.4514 18.1918 33.2751 18.1577 33.4491C18.0326 33.3865 17.9069 33.4129 17.7739 33.3852C17.7911 33.3642 17.8336 33.2243 17.807 33.2314L17.7621 33.3427L17.7656 33.2879C17.7313 33.3379 17.7154 33.3997 17.7207 33.4625C17.3635 33.5495 17.0922 33.1154 16.7562 33.1008C16.6912 33.0093 16.5699 33.0556 16.4818 33.0744C16.2685 32.778 16.0734 32.5352 15.7921 32.6499C15.8835 32.4424 16.0198 32.2617 16.1903 32.1215Z" fill="#CBC4F6"/>
<path d="M27.2283 34.5262C27.2178 34.4371 27.2259 34.3474 27.252 34.2636C27.2431 34.3502 27.2431 34.445 27.2283 34.5262Z" fill="#CBC4F6"/>
<path d="M26.5851 33.4441C26.5728 33.4591 26.5787 33.4013 26.5802 33.3868C26.5817 33.3724 26.6112 33.3049 26.6073 33.3539C26.6033 33.4029 26.6053 33.3942 26.5851 33.4441Z" fill="#CBC4F6"/>
<path d="M26.4069 33.3326C26.4125 33.3031 26.4252 33.2758 26.4437 33.2533C26.4622 33.2308 26.486 33.2137 26.5129 33.2037L26.4069 33.3326Z" fill="#CBC4F6"/>
<path d="M26.2717 32.9606C26.2658 32.892 26.2762 32.8542 26.2984 32.8588C26.2921 32.8936 26.2832 32.9276 26.2717 32.9606Z" fill="#CBC4F6"/>
<path d="M26.2303 33.1432C26.2303 33.1432 26.2151 33.0922 26.2136 33.0435C26.2131 33.101 26.2569 33.0097 26.2303 33.1432Z" fill="#CBC4F6"/>
<path d="M25.8651 32.8234C25.8651 32.8234 25.8158 32.8833 25.8326 32.7935C25.8306 32.8654 25.8932 32.7071 25.8651 32.8234Z" fill="#CBC4F6"/>
<path d="M25.6605 32.9082C25.6577 32.8716 25.6672 32.8356 25.6872 32.8064L25.6605 32.9082Z" fill="#CBC4F6"/>
<path d="M22.2315 32.5305L22.2586 32.4975L22.2409 32.576L22.2315 32.5305Z" fill="#CBC4F6"/>
<path d="M20.752 32.226C20.7175 32.2679 20.7481 32.1487 20.7471 32.1373C20.7461 32.1258 20.716 32.2508 20.752 32.226Z" fill="#CBC4F6"/>
<path d="M19.8908 32.4654L19.8992 32.4678L19.8726 32.6328L19.8908 32.4654Z" fill="#CBC4F6"/>
<path d="M21.8883 48.7311C21.9302 48.6801 21.8355 48.593 21.9153 48.6665C21.9182 48.7324 21.9144 48.7814 21.8883 48.7311Z" fill="#CBC4F6"/>
<path d="M21.8228 48.7607C21.7957 48.6674 21.7509 48.6209 21.7647 48.4967C21.78 48.5792 21.8154 48.675 21.8228 48.7607Z" fill="#CBC4F6"/>
<path d="M20.6426 47.9211C20.645 47.9497 20.616 47.8966 20.6042 47.8857C20.5924 47.8749 20.6185 47.7989 20.6362 47.8468C20.6539 47.8947 20.6421 47.8838 20.6426 47.9211Z" fill="#CBC4F6"/>
<path d="M20.3685 47.8951C20.3657 47.8627 20.3709 47.8305 20.3837 47.8016C20.3965 47.7728 20.4164 47.7482 20.4414 47.7305L20.3685 47.8951Z" fill="#CBC4F6"/>
<path d="M20.0751 47.5827C20.0421 47.5155 20.0441 47.4752 20.0741 47.4766C20.0772 47.512 20.0775 47.5475 20.0751 47.5827Z" fill="#CBC4F6"/>
<path d="M20.0806 47.7722C20.0806 47.7722 20.0392 47.734 20.0293 47.6828C20.0382 47.7541 20.0712 47.6319 20.0806 47.7722Z" fill="#CBC4F6"/>
<path d="M19.5095 47.5883C19.5095 47.5883 19.478 47.6646 19.4538 47.5739C19.4755 47.636 19.5125 47.4646 19.5095 47.5883Z" fill="#CBC4F6"/>
<path d="M19.2833 47.7435C19.2833 47.7435 19.2656 47.7272 19.271 47.7585C19.2764 47.7899 19.2597 47.6586 19.2725 47.6494L19.2833 47.7435Z" fill="#CBC4F6"/>
<path d="M14.7184 48.4941L14.7421 48.4527L14.7489 48.5328L14.7184 48.4941Z" fill="#CBC4F6"/>
<path d="M12.7101 48.6823C12.6756 48.7243 12.6791 48.6064 12.6727 48.5952C12.6663 48.5841 12.6761 48.6984 12.7101 48.6823Z" fill="#CBC4F6"/>
<path d="M11.671 49.1943L11.6789 49.1911L11.6961 49.3596L11.671 49.1943Z" fill="#CBC4F6"/>
<path d="M14.7654 50.213C14.8847 49.7647 15.1861 50.1687 15.3457 49.8735C15.363 49.8525 15.3719 50.1134 15.4152 50.0481C15.5616 49.6932 15.8916 49.8602 16.1595 50.0965L16.1546 50.1656C16.2019 50.2092 16.2286 49.981 16.2828 50.0098C16.3369 50.0386 16.2744 50.0705 16.2931 50.1299C16.2872 49.9981 16.3596 50.049 16.3764 49.9591C16.4025 50.0095 16.4142 50.1151 16.4462 50.1709L16.4547 50.0154C16.4803 49.6494 16.6404 50.0232 16.7188 49.8268C16.7192 49.8641 16.7109 49.8934 16.7247 49.9272C16.8593 49.6878 17.0657 49.7147 17.2445 49.6109C17.2456 49.6817 17.2536 49.7524 17.2681 49.8221C17.2573 49.6647 17.3076 49.6163 17.3563 49.5822C17.4001 49.7437 17.4189 49.4239 17.4888 49.5093L17.4893 49.5467C17.5095 49.3705 17.575 49.6256 17.5805 49.4358L17.6238 49.56C17.6121 49.3281 17.7015 49.6738 17.7213 49.555L17.7144 49.5066C17.7539 49.4587 17.7736 49.561 17.7973 49.5196L17.815 49.536C17.8766 49.4611 17.9367 49.5902 17.916 49.4132C17.9608 49.5545 17.8568 49.485 17.9208 49.6914C18.12 49.5331 18.368 49.4547 18.6228 49.4692C18.6545 49.5164 18.6783 49.5686 18.6933 49.6235C18.7179 49.5936 18.7795 49.5819 18.7967 49.4977C18.8034 49.5335 18.8185 49.5673 18.8406 49.596C18.8997 49.6505 18.8614 49.3941 18.9195 49.4686C18.9068 49.5267 18.9083 49.5877 18.9238 49.6463C18.9465 49.4987 19.0027 49.5189 19.0446 49.4679C19.0389 49.5029 19.0374 49.5388 19.0402 49.5745C19.0752 49.4119 19.1431 49.6007 19.1776 49.4956L19.1703 49.5995C19.2624 49.7211 19.1678 49.3813 19.2417 49.4494C19.2195 49.4764 19.2397 49.5213 19.2436 49.567C19.2786 49.3728 19.3717 49.4112 19.4259 49.3453C19.4258 49.3606 19.4271 49.3759 19.4299 49.3911C19.4924 49.3592 19.5677 49.4127 19.6308 49.3234C19.6692 49.3588 19.6529 49.5807 19.717 49.5344C19.688 49.3234 19.8231 49.4372 19.7541 49.2052C19.8192 49.2335 19.9201 49.3002 19.9521 49.2297C19.9343 49.3081 20.0116 49.4793 19.9648 49.5047L20.0161 49.6255C20.021 49.7143 19.9807 49.5929 19.9989 49.7097C20.0161 49.6887 20.0826 49.6078 20.1126 49.6408C20.1392 49.5073 20.1535 49.2625 20.2319 49.2241C20.2062 49.3058 20.2786 49.4514 20.2628 49.4895L20.3147 49.0792C20.332 49.0582 20.3398 49.2445 20.3674 49.1857C20.363 49.139 20.3663 49.0921 20.3772 49.0473C20.395 49.0636 20.4728 48.9879 20.5191 49.1779C20.5422 49.2571 20.4821 49.2228 20.521 49.2955C20.5668 49.2903 20.5605 49.216 20.5974 49.2026L20.6123 49.2163C20.6448 49.2462 20.6911 49.1204 20.6433 49.008C20.6433 49.008 20.6674 49.1303 20.63 49.0748C20.6359 48.9539 20.6841 48.914 20.73 48.9088C20.7227 48.957 20.7224 49.0063 20.729 49.0553C20.7549 48.9421 20.809 48.8394 20.8857 48.7574C20.8773 48.6602 20.8822 48.9384 20.8669 48.8875C20.9703 49.0144 21.032 48.6868 21.1211 48.8689C21.1211 48.8689 21.0985 48.7322 21.1034 48.7578C21.1084 48.7834 21.1601 48.9101 21.1799 48.8545C21.1951 48.937 21.2069 48.8216 21.2316 48.7916C21.2562 48.7616 21.2582 48.8161 21.2198 48.8439C21.2513 48.7676 21.3971 48.628 21.499 48.7377C21.4916 48.6836 21.5302 48.5295 21.5523 48.5341L21.5582 48.6658C21.5892 48.7418 21.6301 48.6479 21.6498 48.7502C21.6769 48.5909 21.4941 48.9017 21.5404 48.7759C21.5685 48.8807 21.5982 48.5606 21.608 48.7381C21.6509 48.7302 21.6706 48.5799 21.7272 48.7005C21.7095 48.6841 21.7153 48.879 21.7468 48.866C21.7784 48.8529 21.7553 48.8053 21.8001 48.7571L21.8371 48.7121C21.8208 48.5866 21.8898 48.7239 21.8509 48.588C21.8706 48.6904 21.9198 48.504 21.9498 48.7264L21.9612 48.8896C21.9785 48.8686 21.9814 48.7133 21.9937 48.6352L22.0139 48.7117C21.9868 48.4604 22.0749 48.7258 22.0823 48.5273C22.1469 48.6131 22.2209 48.5233 22.2568 48.688C22.2908 48.6088 22.3179 48.5127 22.3652 48.5562C22.3532 48.5841 22.3474 48.6148 22.3484 48.646C22.3898 48.7157 22.3868 48.6498 22.4105 48.6084C22.444 48.6874 22.4842 48.7631 22.5306 48.8349C22.5646 48.7557 22.5342 48.6223 22.5298 48.5392C22.5943 48.7829 22.6238 48.3679 22.7001 48.5908C22.6804 48.6148 22.6539 48.7167 22.6943 48.7749C22.7642 49.0184 22.7514 48.5854 22.8238 48.6995L22.7845 48.4947C22.8278 48.6189 22.8604 48.3646 22.8761 48.5791C22.8889 48.5067 22.9529 48.6498 22.9268 48.4415C23.047 48.6049 23.1584 48.3179 23.2593 48.6688C23.279 48.6448 23.3106 48.6634 23.2909 48.561C23.2712 48.4586 23.2681 48.6454 23.2479 48.5689C23.2479 48.5689 23.2564 48.5081 23.2539 48.4795C23.2953 48.5176 23.316 48.5367 23.3086 48.7036C23.3923 48.8228 23.3386 48.3575 23.4342 48.4244C23.4415 48.5102 23.4524 48.5413 23.4756 48.5258L23.5067 48.3806C23.5687 48.4062 23.5633 48.5644 23.5811 48.7071C23.6046 48.6961 23.6238 48.6772 23.6359 48.6534C23.648 48.6295 23.6525 48.6018 23.6486 48.5744L23.707 48.7495C23.6637 48.6253 23.7213 48.6626 23.7317 48.6248L23.7096 48.6517C23.7229 48.7113 23.742 48.6816 23.7666 48.6517C23.759 48.5967 23.7324 48.546 23.6919 48.5091C23.6974 48.4456 23.7288 48.4642 23.7352 48.3806C23.7446 48.5208 23.7977 48.475 23.8357 48.4731C23.8736 48.4711 23.852 48.3459 23.8579 48.3514C23.8638 48.3568 23.9077 48.3603 23.8973 48.4613C23.8825 48.4793 23.8697 48.3938 23.8588 48.4575C23.848 48.5212 23.8958 48.6337 23.9358 48.5283C23.9757 48.423 23.8934 48.2576 23.9574 48.3376C23.9519 48.3853 23.9487 48.4334 23.948 48.4817L24.0131 48.5416L23.9969 48.4161L24.0126 48.4728C24.0122 48.3407 24.082 48.4261 24.0746 48.2771C24.0943 48.2532 24.1515 48.3479 24.1722 48.367C24.2111 48.4397 24.2446 48.3863 24.2589 48.2994L24.2738 48.3131C24.2738 48.3131 24.327 48.2989 24.3452 48.2262C24.3994 48.3182 24.416 48.7021 24.4426 48.537C24.4855 48.5291 24.4796 48.3026 24.4535 48.2207C24.5392 48.2996 24.5999 48.087 24.6925 48.2775C24.696 48.2228 24.6851 48.1917 24.7043 48.162C24.8221 48.202 24.9181 47.9904 25.0368 48.2314C24.9999 48.2763 25.0501 48.3541 25.0619 48.4281C25.0738 48.3127 25.1043 48.5409 25.093 48.3462C25.0753 48.2351 25.0703 48.178 25.0338 48.1339C25.0464 48.1166 25.0632 48.1032 25.0825 48.095C25.1018 48.0868 25.123 48.0842 25.144 48.0871C25.165 48.0901 25.1852 48.0987 25.2026 48.1121C25.22 48.1254 25.234 48.1432 25.2433 48.1635C25.2342 48.1436 25.2291 48.1222 25.2281 48.1005C25.2272 48.0788 25.2305 48.0574 25.2379 48.0374C25.2536 48.2204 25.3072 48.2434 25.3368 48.1759L25.3275 48.0673L25.3668 48.1773C25.3865 48.1533 25.3522 47.9427 25.4019 48.0464C25.4065 48.0858 25.4144 48.1247 25.4256 48.1629C25.4557 48.0695 25.4882 47.9099 25.5512 48.0101L25.6028 48.1682C25.6201 48.1472 25.6389 48.0486 25.6025 48.0045C25.6911 48.0862 25.7206 48.1135 25.7669 48.2403C25.8482 47.8888 26.0227 47.8598 26.1651 47.8699L26.1694 47.9528C26.2191 48.025 26.1734 47.8091 26.2079 47.8619C26.2424 47.9148 26.2576 48.0288 26.2389 48.1274C26.3034 48.2131 26.2916 47.9811 26.3206 47.9394C26.3113 47.8308 26.3025 48.0122 26.2932 47.872C26.2927 47.8347 26.3759 47.9482 26.3646 47.7851C26.3831 47.8679 26.3921 47.9522 26.3916 48.0364L26.4172 47.9547C26.4797 48.1439 26.3659 48.3075 26.4491 48.5474L26.4737 48.5175C26.5264 48.6871 26.4177 48.7186 26.5039 48.7716C26.5277 48.6415 26.5216 48.506 26.4862 48.3762C26.5379 48.3133 26.4685 47.9808 26.5454 47.9884C26.5754 48.0845 26.4852 48.0173 26.5187 48.1535C26.5522 48.2896 26.5828 48.0756 26.6133 48.1143C26.5814 48.0302 26.5764 47.9386 26.5991 47.8537C26.6464 47.9288 26.5935 48.0118 26.6517 48.0232C26.6463 47.9287 26.6887 47.8519 26.637 47.7885C26.6297 47.5764 26.699 47.8457 26.7207 47.6866C26.7552 47.8342 26.7104 48.0404 26.7764 48.1117C26.7503 47.9666 26.8267 47.9053 26.7676 47.6929C26.8005 47.7705 26.8134 47.8551 26.805 47.9379C26.8503 48.0218 26.8523 47.6656 26.9015 47.9531L26.8913 47.8015C26.909 47.8495 26.9282 47.8829 26.9543 47.9648C26.9868 47.9632 27.0232 47.7546 27.0478 47.9773C27.0625 47.9593 27.1223 47.9563 27.0765 47.8036C27.0307 47.6508 27.046 47.9229 26.9879 47.722C27.0381 47.8946 27.0455 47.6961 27.0593 47.6351L27.075 47.7233C27.0972 47.6964 27.1193 47.7009 27.1169 47.6092C27.1125 47.6529 27.1211 47.6976 27.1415 47.7371L27.138 47.6023C27.1922 47.5364 27.1799 47.8356 27.2306 47.7928L27.2016 47.8978C27.2016 47.8978 27.2454 47.9961 27.2637 47.9549L27.2543 47.5935C27.2912 47.5486 27.2878 47.7297 27.3011 47.5998L27.2814 47.7502C27.2794 47.7905 27.3336 47.9456 27.374 47.9407C27.4144 47.9358 27.4174 47.7174 27.3656 47.6539C27.3656 47.6539 27.4306 47.7139 27.4173 47.8122C27.4592 47.7613 27.3952 47.6812 27.4292 47.6019C27.4553 47.6839 27.5218 47.7925 27.5695 47.905L27.5518 48.1097L27.5818 48.1111C27.566 48.2756 27.6167 48.2328 27.6152 48.4051C27.6418 48.4296 27.6497 48.3632 27.6768 48.3302C27.5857 48.0621 27.6932 47.9504 27.6474 47.7029C27.7115 47.625 27.7725 48.3025 27.8036 47.9047C27.7819 47.8426 27.7953 47.6496 27.7554 47.7234C27.7967 47.7615 27.7554 47.4706 27.8293 47.5702C27.7977 47.6781 27.905 47.8191 27.8636 47.9705C27.8567 47.8904 27.8134 47.9242 27.8193 47.9297C27.8518 48.0228 27.8493 48.1837 27.8976 48.1755C27.9459 48.1673 27.9656 48.1434 27.9434 48.0124C27.9213 47.8815 27.8991 48.0346 27.9001 47.8881C27.9494 47.8282 27.9926 48.0472 27.9813 47.7893C27.9542 47.8223 27.9163 47.6663 27.905 47.5663L27.9494 47.5124L27.9548 47.6069C28.0287 47.675 27.9509 47.4349 28.0258 47.4512L28.0824 47.635C28.0883 47.7983 27.9711 47.5746 28.0209 47.8363C28.0677 47.8425 28.0643 47.7077 28.116 47.7711C28.1012 47.7891 28.0914 47.8011 28.079 47.8161C28.0667 47.831 28.1557 48.171 28.1947 47.9595C28.2149 47.878 28.1894 47.865 28.178 47.7651C28.2455 47.7272 28.2559 47.6262 28.3037 47.6123C28.3204 47.8067 28.3888 47.6222 28.3627 47.8246C28.3233 47.7146 28.2219 47.737 28.2214 47.9208C28.276 48.1449 28.1592 47.8952 28.1764 48.127C28.2335 48.1269 28.2582 48.3497 28.2897 48.4946C28.2897 48.4946 28.3243 48.4526 28.3213 48.4183C28.3065 48.2783 28.2878 48.2821 28.2676 48.1425C28.3381 48.1705 28.3908 48.0874 28.4179 47.9597C28.4479 48.0242 28.4597 48.1614 28.4341 48.1799C28.4687 48.1586 28.5081 48.1469 28.5489 48.1458C28.5896 48.1447 28.6304 48.1544 28.6676 48.1739C28.5942 47.9536 28.7439 48.1125 28.6873 47.9288C28.6245 47.8385 28.5913 47.73 28.5928 47.6205C28.6135 47.6396 28.6041 47.7205 28.6219 47.7684C28.6382 47.6412 28.6981 47.9598 28.7031 47.7643C28.6391 47.8422 28.7268 48.0388 28.7366 48.2164C28.7741 48.114 28.7529 48.3419 28.7987 48.3367C28.828 48.248 28.877 48.1687 28.942 48.1054C29.0346 48.2643 29.1204 48.0906 29.179 48.0762C29.2273 48.1628 29.2337 48.3635 29.2716 48.3931C29.3095 48.4228 29.21 48.1836 29.2853 48.2688L29.2858 48.3062C29.3129 48.2732 29.4188 48.4287 29.4115 48.1534L29.4223 48.3739C29.44 48.3903 29.4445 48.347 29.4592 48.329C29.4706 48.3974 29.4922 48.4594 29.4774 48.509C29.5389 48.6552 29.5563 48.4763 29.5962 48.4657L29.5529 48.3416C29.6115 48.2324 29.6736 48.3527 29.7372 48.3007L29.7534 48.4262L29.7819 48.3471C29.7898 48.4702 29.8395 48.5423 29.8469 48.4386L29.7818 48.7577C29.7429 48.685 29.7956 48.602 29.7582 48.4833C29.7208 48.3646 29.6755 48.4071 29.676 48.5392C29.6966 48.5582 29.6932 48.5182 29.7203 48.4852C29.7513 48.656 29.7159 48.6548 29.7124 48.7727C29.7124 48.7727 29.7537 48.8109 29.7321 48.7488C29.7232 48.8354 29.6976 48.8539 29.6459 48.8536C29.6641 48.7809 29.6149 48.7461 29.6188 48.6971C29.64 48.8482 29.6035 48.899 29.5459 48.8617C29.4848 48.6896 29.4522 48.9754 29.398 48.9466C29.3923 48.8261 29.408 48.7067 29.444 48.594C29.3942 48.5219 29.401 48.6019 29.3611 48.5177C29.3731 48.6436 29.3628 48.7699 29.3306 48.8898L29.3153 48.7757C29.2685 48.8327 29.3 49.0089 29.2379 48.9834C29.1468 48.9509 29.0514 48.9364 28.9566 48.9403L28.936 48.8265C28.9301 49.0738 28.8143 48.9303 28.7636 49.0363C28.6542 48.9356 28.5709 49.1694 28.497 48.975C28.3692 49.096 28.2011 49.1609 28.0254 49.1568L28.0353 48.9868C28.0191 49.114 28.0029 48.8938 27.9704 48.927C28.0196 49.0566 27.9502 49.1033 27.9403 49.21C27.8482 49.0883 27.7659 49.2389 27.7112 49.3623L27.6959 49.2482C27.655 49.4685 27.5472 49.2902 27.455 49.2633C27.4373 49.2154 27.4093 49.1105 27.3861 49.126C27.3756 49.2344 27.3405 49.3375 27.284 49.4269C27.2468 49.4252 27.2102 49.4154 27.1763 49.3978C27.1424 49.3802 27.1121 49.3554 27.0876 49.325C26.9318 49.6028 26.715 49.4558 26.5396 49.6312L26.5091 49.4977C26.3558 49.8041 26.0904 49.565 25.9465 49.7273L25.9347 49.4952C25.8697 49.4354 25.8239 49.567 25.8569 49.729C25.7919 49.6691 25.7508 49.8577 25.6908 49.6655C25.6405 49.6192 25.638 49.7802 25.6001 49.8137C25.4819 49.7364 25.4484 49.7582 25.3548 49.8089L25.3755 49.828C25.3795 49.779 25.3681 49.679 25.3425 49.6659C25.2981 49.7199 25.1997 49.6187 25.272 49.8907C25.1474 49.7391 25.0428 50.0429 24.9133 49.8341C24.9335 49.9106 24.9079 49.9291 24.9039 49.9782C24.8098 49.9915 24.6966 49.8451 24.6375 49.9802C24.6109 49.9557 24.6454 49.8506 24.6069 49.8468C24.5685 49.843 24.6183 49.9467 24.5976 49.9908C24.4695 50.1466 24.2744 49.8722 24.1394 49.9164C23.9142 50.0829 23.6542 50.0329 23.4295 50.0787L23.4246 50.0215C23.3728 50.2424 23.2118 49.8255 23.193 50.1452C23.1546 50.1098 23.1206 50.126 23.1197 50.0198C23.0758 50.1742 22.932 49.8942 22.8674 50.0928C22.8674 50.0928 22.8674 50.0928 22.8896 50.0658C22.7773 49.9624 22.7261 50.1258 22.6167 50.0251C22.6329 49.9957 22.6395 49.9611 22.6354 49.9265C22.5857 49.8228 22.5772 50.1678 22.5245 49.9035C22.5245 49.9035 22.5279 50.0382 22.5378 50.0262C22.3185 49.9454 22.1171 50.1337 21.9092 50.216C21.7408 50.0609 21.8462 49.7684 21.7472 49.9773C21.7319 49.9264 21.7506 50.0804 21.7432 50.0262C21.7063 50.1028 21.6339 49.736 21.6186 49.8746C21.6033 50.0132 21.6078 49.97 21.6191 50.0699C21.5097 49.9692 21.4727 49.8245 21.4161 49.9566L21.4087 49.8709C21.3485 50.1208 21.2348 50.0002 21.1943 50.2894C20.7204 50.3795 20.275 50.5801 19.808 50.6555C19.3336 50.645 18.8961 50.8108 18.4084 50.7091C18.2676 50.4952 18.2596 50.4984 18.1517 50.6044C18.1512 50.5671 18.1586 50.558 18.1448 50.5242C18.1635 50.7099 18.0626 50.5486 18.0724 50.7261C17.9016 50.7298 17.7321 50.75 17.566 50.7862C17.5882 50.7593 17.5892 50.6127 17.5577 50.6258L17.5355 50.7475L17.5255 50.6964C17.5121 50.7238 17.505 50.7543 17.5044 50.7856C17.5038 50.817 17.5097 50.8482 17.522 50.8773C17.0934 51.0828 16.5935 50.7436 16.1693 50.8426C16.055 50.7794 15.9156 50.8669 15.8082 50.9154C15.4387 50.7015 15.1092 50.5402 14.7954 50.7513C14.6682 50.8238 14.6402 50.3399 14.7654 50.213Z" fill="#CBC4F6"/>
</svg>
