<svg width="204" height="93" viewBox="0 0 204 93" fill="none" xmlns="http://www.w3.org/2000/svg">
<path d="M0.308558 12.2458C-0.201694 12.689 0.684074 12.1336 0 12.5656C0.0224427 12.4917 0.0621987 12.4241 0.115812 12.3685C0.169425 12.3129 0.235529 12.2709 0.308558 12.2458Z" fill="#9C90EF"/>
<path d="M175.28 7.59537C174.868 8.00601 174.413 8.37099 173.923 8.68375C173.402 9.0035 172.841 9.30636 172.28 9.60929C171.159 10.2544 169.959 10.7313 168.916 11.3708C168.669 11.5054 168.882 11.1295 168.355 11.4493C167.81 11.8024 167.232 12.1012 166.628 12.3413C165.978 12.6161 165.271 12.9022 164.542 13.1546C163.813 13.4071 163.04 13.5809 162.299 13.7716C161.559 13.9623 160.83 14.1531 160.129 14.2429L160.275 14.1363C159.748 14.2205 159.154 14.5963 158.621 14.6973C158.621 14.658 158.778 14.5907 158.621 14.5683C158.515 14.731 157.646 14.8767 157.438 15.0338C157.208 15.0338 157.208 14.9385 156.916 14.9385L156.631 15.1461C155.823 15.6678 154.483 15.5556 153.317 15.9651C153.367 15.9202 153.485 15.8754 153.378 15.8585C152.425 16.111 151.332 16.3129 150.21 16.5092C149.089 16.7055 147.917 16.7953 146.846 16.958C146.93 16.8963 146.997 16.7896 146.846 16.7448C146.431 16.9776 145.965 17.1012 145.489 17.1039C145.209 16.9524 144.485 17.3113 143.807 17.2664L143.863 17.2272C143.358 17.4292 143.1 17.1712 142.691 17.4012L142.36 17.2945C142.147 17.5469 141.615 17.2104 141.194 17.3338V17.3843C140.796 17.446 140.583 17.3395 140.213 17.3843H140.179C139.31 17.4685 138.805 17.3507 138.828 17.5302C138.52 17.3956 139.669 17.446 139.187 17.2497C136.3 17.4377 133.404 17.4377 130.518 17.2497C130.193 17.1656 129.957 17.1319 129.918 17.0533C129.469 17.0363 129.02 17.0476 128.572 17.087C128.668 17.087 128.393 16.9804 128.242 16.9636C127.726 16.857 127.681 17.1206 127.092 16.9972C127.322 16.9691 127.406 16.9131 127.333 16.8402C126.76 16.9147 126.181 16.924 125.606 16.8682C125.696 16.8682 125.836 16.8682 125.819 16.7841C125.174 16.885 124.698 16.6439 124.137 16.6887L124.35 16.6045C123.475 16.397 124.07 16.7953 123.307 16.6494C123.492 16.6494 123.431 16.5878 123.47 16.5485C122.6 16.5983 121.727 16.5663 120.863 16.453C120.902 16.453 120.896 16.4195 120.896 16.4195C120.117 16.3466 119.309 16.1894 118.446 16.1726C118.137 16.0828 118.58 15.9371 117.75 15.8585C117.75 16.0717 116.349 15.7462 116.803 16.0492C116.053 15.8766 115.292 15.7548 114.526 15.6846C114.851 15.6509 114.223 15.3816 114.807 15.4489L114.386 15.2639C114.465 15.1853 114.835 15.3536 114.711 15.2302C114.24 15.2001 113.77 15.1457 113.304 15.0675C112.654 15.1767 111.993 15.2032 111.336 15.1461C111.756 15.1461 111.14 14.8767 111.426 14.8879L110.142 15.0787C109.85 15.0394 110.102 14.9048 109.676 14.8879C109.676 14.944 109.502 14.9441 109.362 14.9665C109.222 14.989 108.151 14.7983 108.061 14.5739C107.949 14.4729 108.538 14.6187 108.235 14.4897C107.674 14.3943 107.674 14.456 107.114 14.3663V14.3382C106.766 14.2484 106.059 14.2261 106.418 14.4112C106.665 14.4673 106.351 14.2766 106.704 14.4112C106.223 14.4495 105.738 14.4098 105.269 14.2934C105.46 14.2934 105.449 14.2372 105.533 14.1923C104.752 14.188 103.973 14.13 103.2 14.0185C103.166 14.1139 103.531 13.9063 103.637 13.9792C102.639 13.6539 101.484 13.7324 100.671 13.3621C100.811 13.3621 100.716 13.5136 100.71 13.4799C100.223 13.3677 100.273 13.2331 99.9422 13.2163C99.9422 13.1265 99.5328 13.1546 99.1964 13.1097C99.0114 13.1097 99.1178 13.0536 99.4094 13.1097C98.2692 12.9922 97.1428 12.7668 96.0451 12.4366C95.7339 12.4964 95.4144 12.4964 95.1033 12.4366L95.2265 12.33C95.0246 12.2066 94.4078 12.1505 94.3966 12.0327C93.8359 12.0664 96.4266 12.3749 95.6977 12.3244C95.5407 12.1842 94.6714 12.2963 94.8621 12.1617C94.3709 12.1181 93.8871 12.0144 93.4211 11.8531C93.5557 11.9036 93.8641 11.7746 93.466 11.6904C92.7651 11.5502 93.2527 11.6905 92.6808 11.612L92.3109 11.5783C92.2604 11.6961 91.694 11.4156 91.9183 11.612C91.8566 11.4942 90.8979 11.4268 91.0156 11.2416L91.1501 11.107C90.8868 11.0892 90.6224 11.1101 90.3651 11.1688C90.3315 11.1407 90.2586 11.0903 90.2811 11.0679C90.1745 11.2978 89.5689 10.8714 89.1596 10.9724C88.554 10.7368 87.5673 10.5686 87.3094 10.3386C86.7989 10.319 86.2932 10.2304 85.8065 10.0749C85.9187 10.0749 86.0756 10.1142 86.1148 10.0749C85.8797 9.9651 85.623 9.90948 85.3636 9.91223C85.0358 9.7251 84.6969 9.55828 84.3486 9.41289C83.8496 9.3568 83.9787 9.53074 83.9114 9.59805C83.5357 9.24465 82.5206 9.40172 82.0272 9.03709C82.201 9.03709 82.7562 9.09883 82.3749 8.93615C81.9992 8.58835 81.4442 8.87999 80.7713 8.58267L80.8945 8.82399C80.6086 8.61643 79.8237 8.66686 79.9527 8.48174C79.6948 8.48174 79.134 8.19571 79.162 8.40888C78.0406 7.93767 76.3247 7.7581 75.7079 7.22518C75.5341 7.22518 75.1474 7.06808 75.1866 7.19149C75.4333 7.371 75.5904 7.19147 75.6745 7.31488C75.5231 7.28123 75.4782 7.31492 75.4557 7.34857C75.1081 7.20833 74.8278 7.11856 75.2091 7.05125C74.4409 6.72028 74.2949 7.15787 73.3024 6.81007C73.3641 6.74275 73.3025 6.69222 72.9941 6.62491H72.3943C71.7438 6.42296 72.069 6.34442 72.0915 6.20418C71.7748 6.11104 71.4456 6.06753 71.1157 6.07517L70.7346 5.79469C71.0149 5.99664 70.4205 5.79469 70.2467 5.79469H70.4205C70.2073 5.69909 69.98 5.63858 69.7476 5.61528C69.7756 5.71064 70.1794 5.85078 70.3981 5.93493C70.2074 5.93493 69.9271 5.86208 69.6747 5.8733C69.7869 5.76111 69.114 5.63203 68.8449 5.54228C68.5757 5.45253 68.4581 5.54228 68.3627 5.54228C68.3627 5.46935 67.841 5.40201 68.1158 5.36835C68.2335 5.36835 68.3513 5.49748 68.5475 5.48065C68.3457 5.37407 68.402 5.26178 67.9422 5.23934C67.5946 5.23934 67.942 5.52547 67.3533 5.28426C67.4744 5.28086 67.5949 5.26387 67.7122 5.23372L67.1515 5.015L67.0954 5.13279C67.0225 5.0823 67.0953 5.08797 67.0505 5.05993C66.843 5.14407 66.1422 4.88035 65.9739 4.99254C65.6712 4.93645 65.3683 4.76252 65.088 4.68399H65.1441C64.7884 4.54036 64.4058 4.47539 64.0227 4.49334V4.49334C63.73 4.41573 63.4282 4.37788 63.1255 4.38104C62.6657 4.1847 63.0639 3.8875 62.5031 3.92676C62.0097 3.82579 61.6902 3.98837 61.8696 4.10617C61.0061 3.85374 59.9742 3.84262 59.1892 3.50604C59.0547 3.50604 59.1275 3.57888 58.864 3.56205C57.5799 3.27035 56.1053 3.23105 55.1128 2.82715C55.4941 2.82715 55.1577 2.70944 55.1577 2.63651C54.8269 2.70383 54.7988 2.46822 54.6586 2.63651C54.6586 2.74871 54.6587 2.79918 54.9951 2.90015C54.1901 2.85188 53.3919 2.72414 52.612 2.51873C52.8251 2.59727 52.6514 2.60845 52.4776 2.61967C52.5561 2.45138 51.9841 2.35042 51.5467 2.35603L51.4682 2.45697L51.2048 2.31111C51.0309 2.31111 50.9918 2.51311 50.5712 2.36165C50.5635 2.33307 50.5493 2.30661 50.5299 2.28427C50.5105 2.26192 50.4862 2.24429 50.459 2.23263C49.9341 2.3251 49.397 2.3251 48.8721 2.23263L48.4907 2.03624C48.2776 2.03624 47.9301 2.09795 48.2777 2.17648C47.7271 2.1128 47.1865 1.98092 46.6684 1.78383C44.9328 1.94758 43.1868 1.96451 41.4484 1.83437L41.4987 1.75576C41.0558 1.666 41.2632 1.89046 40.938 1.82876C41.0894 1.75022 40.6016 1.64912 40.938 1.55937C40.2988 1.45839 40.1082 1.67718 39.6876 1.71645C39.626 1.82304 40.0297 1.6492 39.9455 1.78383C39.8727 1.8231 39.0539 1.69963 38.9585 1.86231C38.7959 1.79499 38.9195 1.67722 39.0092 1.6099L38.6166 1.68851C38.1344 1.49779 39.738 1.35193 39.211 1.12755H38.8408C38.4932 0.959258 39.811 0.936715 38.8915 0.880618C38.4934 0.959154 38.1568 1.19486 38.5101 1.26779C37.6858 1.30706 38.1288 1.64921 37.2485 1.65482C37.0074 1.56507 37.9551 1.61553 37.7813 1.48651C37.3663 1.36309 36.9513 1.57631 36.5812 1.53704C36.9906 1.59314 36.6485 1.76141 36.3849 1.80068C35.9308 1.73336 36.671 1.63798 36.0318 1.63798C35.9308 1.72773 35.3533 1.82305 35.8579 1.86792C35.6336 2.09231 35.1964 1.83989 34.8599 2.0194C34.6413 1.87915 35.4991 1.64355 34.7926 1.59867C34.9103 1.73891 33.946 1.83429 34.3217 2.03624C34.0469 2.00258 34.0132 1.89043 34.2094 1.79506C33.8113 1.71653 33.2787 2.10924 33.1329 1.83437L33.0094 1.99132C32.8805 1.95205 32.7068 1.92963 32.4994 1.86231C32.1573 1.86231 31.4113 2.14285 31.4225 1.91846C31.316 1.95773 30.531 2.02499 30.8618 2.14841C31.3553 2.19328 31.4227 1.97451 31.6974 2.14841C31.3386 2.00256 30.9965 2.23819 30.7274 2.31672L30.6713 2.23825C30.5087 2.28874 30.1106 2.30546 30.0265 2.41205C30.1499 2.35034 30.077 2.29987 29.9425 2.28865L29.7798 2.44012C29.1126 2.56914 29.5947 2.22138 28.9442 2.33919L29.4321 2.17648C29.2139 2.15644 28.9943 2.15644 28.7761 2.17648C28.664 2.31111 28.4564 2.48501 28.3611 2.59159C27.9966 2.69257 28.1762 2.47945 27.8285 2.64774L28.2882 2.44012C28.3555 2.39524 27.9407 2.28871 27.4417 2.35603C27.1333 2.43457 26.6678 2.69265 27.178 2.67582C26.9313 2.71509 26.5724 2.67573 26.7575 2.58036C26.1968 2.70938 26.8471 2.69815 26.3761 2.84962C26.1686 2.79913 25.5352 2.78232 25.1427 2.73183L25.6136 2.45135L25.2771 2.50189C25.6864 2.2775 25.036 2.41773 25.2771 2.21017C25.0284 2.2442 24.7865 2.31602 24.5595 2.42328C25.2772 2.55791 23.8754 2.92816 24.1165 3.13571C23.2194 3.38254 23.4211 2.64216 22.5576 3.23679C22.7258 3.26483 22.3165 3.5509 22.8716 3.34895C22.3109 3.44993 22.5465 3.67988 21.8624 3.72476C22.3278 3.5172 21.2738 3.60134 21.9522 3.29842C21.9242 3.38817 22.3671 3.27043 22.4681 3.21994C22.2157 3.18067 22.4681 2.96752 21.9073 3.09654C21.5597 3.20313 21.0718 3.31523 21.1728 3.42181C21.2737 3.5284 21.7334 3.28723 21.5147 3.47796C20.8251 3.67991 20.6626 3.52278 20.4327 3.83692C20.8701 3.70229 20.9932 3.83699 21.0268 3.90992L20.5335 4.10056L20.6063 3.98278C19.7764 4.12863 20.41 4.21276 19.6138 4.39227L19.1933 4.30818C19.3391 4.10623 20.3653 4.07816 20.1578 3.865C19.7787 4.00858 19.3912 4.12842 18.9973 4.22395C19.0982 4.16786 19.2439 4.12872 19.3504 4.07824C19.1623 4.02481 18.9651 4.0121 18.7717 4.04112C18.5783 4.07014 18.3932 4.14013 18.229 4.24642C17.8758 4.43714 18.1562 4.3699 18.1786 4.46527C17.3656 4.73453 17.1525 4.90276 16.6367 5.0991C16.6815 4.88032 15.7114 5.39085 16.2216 5.00939C16.5224 4.98005 16.8172 4.90625 17.0964 4.79054C17.3984 4.70398 17.683 4.56541 17.9374 4.38104C17.573 4.25202 18.5878 4.21835 18.6999 3.94347C18.0383 4.1342 18.0102 3.91543 17.8589 3.80885C17.7 3.86046 17.5476 3.93016 17.4046 4.01647C17.371 4.17354 17.6121 4.10055 17.6625 4.22957C17.0268 4.37354 16.4228 4.63212 15.8796 4.99254C15.6161 4.99254 15.6441 4.85234 15.93 4.74575C15.0721 5.05989 14.1581 5.41325 13.3282 5.67691C13.631 5.67691 13.4067 5.77795 13.1656 5.88453C12.9245 5.99111 12.6612 6.10887 12.8743 6.12009C13.3172 5.97985 13.7546 6.00235 13.5527 6.18186C13.2724 6.266 13.5247 6.0864 13.3901 6.08079C13.0929 6.33322 12.7901 6.12574 12.5266 6.43988C13.2667 6.0472 12.5714 6.12574 12.6443 5.87891C12.1284 6.20988 12.6443 5.75547 12.0836 5.99108C11.8257 6.15376 11.5229 6.3276 11.2313 6.49028C10.9397 6.65296 10.6257 6.84939 10.3341 7.00646C9.49301 7.2028 8.42775 7.9544 7.77171 8.30781C7.37921 8.41439 7.51384 8.11147 7.12694 8.30781C6.74005 8.50414 7.55844 8.30782 6.86876 8.59952L6.91366 8.52666C6.73984 8.68373 5.66337 9.08757 5.62412 9.4522L5.70818 9.15487C5.59312 9.21325 5.49193 9.29558 5.41112 9.39618C5.36626 9.34009 5.198 9.39614 5.36622 9.21102C4.90082 9.33443 4.56443 9.77196 4.1495 10.0244L4.48572 9.96277C3.81846 10.4957 3.28589 10.7312 2.63546 11.2416L2.58508 11.1239L2.22615 11.4661C2.25419 11.3034 1.83354 11.4942 1.69336 11.741C1.9625 11.3932 2.2541 11.079 2.55688 10.7424C2.88771 10.5966 2.32138 11.0903 2.55688 11.0622C2.90492 10.9366 3.20506 10.705 3.41493 10.4002C3.25725 10.4932 3.11842 10.6151 3.00562 10.7593C2.8318 10.6695 3.19616 10.4227 3.31391 10.1983C3.19055 10.2937 2.98304 10.3778 2.98865 10.4395C3.23557 10.1564 3.52731 9.91566 3.85217 9.72707C3.60546 9.96828 4.07098 9.72716 3.98688 9.82814C3.93641 9.68229 4.32335 9.37932 4.87285 9.07639C5.33264 8.97542 5.82024 8.37514 6.47067 8.04978C6.25964 8.37681 5.99418 8.66522 5.68572 8.90246C6.11748 8.73978 6.1175 8.64442 6.54925 8.48174C6.69392 8.1597 6.92483 7.88404 7.21647 7.68521L7.30052 7.7693C7.7491 7.47199 7.665 7.32049 8.293 7.02879C8.82007 6.77074 9.36401 6.52964 9.87987 6.29964C10.3957 6.06964 10.8611 5.83959 11.2817 5.67691L11.3602 5.76661C11.7191 5.35711 12.8461 5.02058 13.4405 4.69522C14.5619 4.37547 15.7395 3.74722 16.3563 3.74722C18.1755 3.03174 20.051 2.46884 21.9635 2.06432L21.6607 2.29988C21.9971 2.09793 21.913 2.33922 22.2663 2.23825C21.8289 2.19898 22.7259 1.95775 22.9614 1.80068C23.9425 1.68699 24.9088 1.46876 25.8436 1.14987L25.894 1.25656C26.3172 1.09026 26.7635 0.989966 27.2172 0.95923C27.705 0.919963 28.2154 0.90865 28.7312 0.863773C28.9328 0.933636 29.148 0.954842 29.3593 0.925539C29.8917 0.717732 30.4441 0.565431 31.0078 0.471124C31.7387 0.409262 32.4727 0.392489 33.2057 0.420725C35.4486 0.0224387 37.7868 0.129022 40.1418 0L40.3157 0.140242C42.609 -0.117803 45.4125 0.308444 47.3638 0.330882L47.1563 0.538506C47.7619 0.661918 48.5526 0.605854 48.4124 0.431955C49.018 0.544148 49.9486 0.476821 50.313 0.701208C50.744 0.737344 51.1773 0.737344 51.6083 0.701208C52.5593 0.8897 53.5196 1.02826 54.485 1.11632L54.1989 1.06017C54.0643 1.08821 54.0363 1.18362 54.3279 1.23971C54.7708 1.23971 55.926 1.53699 55.5279 1.20602C56.7558 1.55382 58.4603 1.55377 59.6322 1.99132C59.5425 1.90157 59.851 1.94089 59.9912 1.91285C61.0093 2.18193 62.0404 2.39907 63.0806 2.56352C63.2488 2.63644 62.7834 2.63086 63.2207 2.73183C63.4843 2.73183 63.249 2.63654 63.5742 2.66459C65.3629 2.9058 67.0897 3.61253 68.6765 3.97155C71.5193 4.53251 74.407 5.39641 77.0872 6.0864L77.0426 6.13132C77.9902 6.16498 79.0837 6.8998 79.8799 6.78199C80.0761 6.88858 80.6759 7.01762 80.4964 7.07932C81.2422 7.1242 82.4534 7.74131 83.53 7.82545C83.4444 7.80023 83.3556 7.78697 83.2664 7.78615C84.2756 8.17321 85.2291 8.25737 86.3057 8.63882C86.1879 8.63882 85.9804 8.59956 85.9355 8.63882C86.3336 8.84638 86.9952 8.67255 87.1634 8.98669C87.4102 9.04279 87.371 8.90243 87.2196 8.86877C89.597 9.5812 92.2156 10.0468 94.7389 10.5517C96.5051 11.1126 94.7388 11.0173 96.2135 11.1463C96.32 11.2249 96.32 11.0678 96.3312 11.1463C96.8919 11.1968 97.1218 11.6232 97.5367 11.5727C97.4133 11.3819 97.8113 11.5727 97.845 11.4493C98.9215 11.7971 99.1123 12.0103 100.015 12.0552L99.931 12.128C101.002 12.128 102.174 12.487 103.082 12.3917C108.745 13.5136 114.212 14.2653 119.775 14.9216C125.337 15.5779 130.675 15.9425 136.282 16.1445C137.217 16.3701 138.186 16.4121 139.136 16.268C139.08 16.3017 138.99 16.3128 139.086 16.3465C139.153 16.1614 140.101 16.3017 140.235 16.1278L141.766 16.0997C142.271 16.0997 142.764 16.0379 143.263 16.0099C144.261 15.9313 145.27 15.8865 146.33 15.7743C145.999 15.8304 145.842 15.9987 146.24 15.9426L146.644 15.7855L146.717 15.8304C146.986 15.7744 147.278 15.6509 146.986 15.6228C152.274 14.9553 157.511 14.3551 162.473 12.7114C163.164 12.5464 163.84 12.3289 164.497 12.0608L166.538 11.2081C170.237 10.0211 173.713 8.22574 176.822 5.89576C176.822 5.89576 176.609 6.56319 175.28 7.59537Z" fill="#9C90EF"/>
<path d="M0.942139 11.7297C1.11596 11.7297 1.50279 11.466 1.29532 11.7969C1.20561 11.7577 0.953353 11.8251 0.942139 11.7297Z" fill="#9C90EF"/>
<path d="M12.2349 6.25458C12.2349 6.22092 12.4088 6.22088 12.4537 6.21527C12.3135 6.28259 12.2125 6.41166 12.0835 6.41166C12.2237 6.36118 12.1844 6.3275 12.2349 6.25458Z" fill="#9C90EF"/>
<path d="M15.2124 5.13275C14.9072 5.36801 14.569 5.55703 14.2087 5.69372C14.562 5.51982 14.8704 5.32909 15.2124 5.13275Z" fill="#9C90EF"/>
<path d="M18.1225 4.57178C18.3861 4.57178 18.33 4.62227 18.0048 4.71763C17.9656 4.67837 18.0665 4.62226 18.1225 4.57178Z" fill="#9C90EF"/>
<path d="M18.274 4.32499C18.4334 4.27502 18.6016 4.25968 18.7674 4.28007C18.7338 4.21276 18.2348 4.48206 18.274 4.32499Z" fill="#9C90EF"/>
<path d="M24.5595 3.07405C24.7109 3.03478 25.0248 2.90565 25.1818 2.96736C25.0136 2.93931 24.4642 3.21429 24.5595 3.07405Z" fill="#9C90EF"/>
<path d="M27.4584 2.46246C27.5402 2.46708 27.6222 2.45562 27.6996 2.42877C27.8846 2.42877 27.6996 2.52973 27.5594 2.55217L27.4584 2.46246Z" fill="#9C90EF"/>
<path d="M81.4049 8.84077L81.0797 8.79589L81.147 8.72858L81.4049 8.84077Z" fill="#9C90EF"/>
<path d="M104.927 14.3437C105.258 14.3437 105.135 14.4671 105.185 14.4895C104.893 14.4391 105.308 14.411 104.927 14.3437Z" fill="#9C90EF"/>
<path d="M117.845 16.0716L117.745 16.0603L117.801 15.9033L117.845 16.0716Z" fill="#9C90EF"/>
<path d="M20.5448 81.3345C19.9841 81.4972 20.8813 81.4074 20.1917 81.4804C20.2332 81.428 20.2875 81.387 20.3494 81.3615C20.4112 81.336 20.4784 81.3267 20.5448 81.3345V81.3345Z" fill="#9C90EF"/>
<path d="M166.656 85.2723C166.254 85.5645 165.826 85.8197 165.378 86.0351C164.907 86.2483 164.402 86.439 163.892 86.6242C163.382 86.8093 162.86 87 162.356 87.1851C161.861 87.3631 161.376 87.5672 160.903 87.7966C160.685 87.892 160.903 87.5554 160.393 87.7966C159.906 88.0595 159.4 88.2863 158.879 88.4754C158.318 88.6717 157.696 88.8568 157.057 89.0363C155.805 89.3643 154.533 89.6116 153.249 89.7767L153.373 89.6758C152.924 89.7487 152.442 90.0966 151.96 90.1639C151.96 90.119 152.094 90.0685 151.96 90.0349C151.87 90.192 151.124 90.2817 150.945 90.4219C150.749 90.4219 150.743 90.3041 150.491 90.2985L150.255 90.506C149.582 91.0333 148.427 90.8426 147.452 91.2128C147.497 91.168 147.592 91.1231 147.502 91.1063C147.104 91.2297 146.672 91.3474 146.218 91.4596C145.764 91.5718 145.298 91.6393 144.816 91.729C143.863 91.8917 142.882 92.0599 141.951 92.1889C142.018 92.1272 142.074 92.0263 141.951 91.9758C141.878 92.1441 141.306 92.2506 140.83 92.3348C140.583 92.1945 139.989 92.5873 139.389 92.5536L139.434 92.5087C139.013 92.7163 138.777 92.4639 138.447 92.6995L138.155 92.5928C137.987 92.8396 137.516 92.5255 137.168 92.6714V92.7162C136.832 92.8003 136.647 92.7162 136.333 92.7611H136.305C135.57 92.8565 135.133 92.7611 135.183 92.9294C134.914 92.8004 135.895 92.8284 135.475 92.6433C134.256 92.8048 133.031 92.904 131.802 92.9406C130.568 92.9911 129.329 93.0079 128.107 92.9967C127.827 92.9237 127.653 92.9014 127.591 92.8341C127.215 92.8474 126.84 92.8886 126.47 92.9575C126.548 92.9575 126.313 92.8622 126.184 92.8509C125.741 92.7724 125.696 93.036 125.208 92.9406C125.404 92.9014 125.472 92.8453 125.404 92.7723C124.92 92.8658 124.428 92.909 123.935 92.9013C124.014 92.8733 124.131 92.8565 124.115 92.8004C123.554 92.9463 123.133 92.7443 122.662 92.8004L122.842 92.7051C122.09 92.5424 122.606 92.907 121.956 92.806C122.113 92.778 122.062 92.7331 122.091 92.6939C121.347 92.7843 120.596 92.8124 119.848 92.7779C119.887 92.7779 119.881 92.7386 119.881 92.7386C119.214 92.7386 118.524 92.6097 117.784 92.6433C117.521 92.5816 117.891 92.3965 117.184 92.3909C117.184 92.5985 115.984 92.3909 116.382 92.6546C115.738 92.5342 115.086 92.4647 114.431 92.4469C114.706 92.3908 114.162 92.1665 114.661 92.1945L114.297 92.0374C114.358 91.9533 114.683 92.0992 114.571 91.9814C114.169 91.9849 113.766 91.968 113.366 91.9309C112.82 92.0945 112.253 92.1702 111.684 92.1552C112.042 92.1159 111.504 91.9084 111.745 91.8972L110.663 92.1889C110.411 92.1889 110.624 92.0206 110.259 92.0374C110.259 92.0935 110.108 92.1105 109.996 92.1441C109.884 92.1778 108.953 92.0712 108.875 91.858C108.774 91.7627 109.284 91.8579 109.02 91.757C108.56 91.7065 108.532 91.7571 108.073 91.7234V91.6953C107.77 91.628 107.164 91.6953 107.512 91.8243C107.719 91.858 107.445 91.6953 107.747 91.7906C107.343 91.8662 106.929 91.8662 106.525 91.7906C106.682 91.7906 106.671 91.7177 106.744 91.6672C106.079 91.7238 105.412 91.7238 104.747 91.6672C104.747 91.7626 105.028 91.5271 105.123 91.5888C104.254 91.3363 103.273 91.5438 102.566 91.2409C102.69 91.2409 102.611 91.3867 102.606 91.3587C102.185 91.2858 102.224 91.1456 101.938 91.1624C101.938 91.0727 101.585 91.1343 101.299 91.1175C101.142 91.1568 101.232 91.067 101.478 91.1175C100.498 91.1079 99.5223 90.9893 98.5684 90.764C98.3098 90.8475 98.0361 90.8725 97.7667 90.837L97.8675 90.7249C97.688 90.6183 97.1609 90.6238 97.1441 90.5116C96.6675 90.5958 98.8935 90.6463 98.2655 90.6743C98.1254 90.5397 97.3909 90.7417 97.5479 90.5902C97.1272 90.5996 96.7073 90.5447 96.303 90.4275C96.4208 90.4668 96.6787 90.3041 96.3367 90.2592C95.7311 90.1863 96.1517 90.2929 95.6583 90.2592H95.35C95.3051 90.377 94.7892 90.1527 95.0135 90.3266C94.9574 90.2144 94.1332 90.2479 94.2285 90.0516L94.3351 89.9059C94.1065 89.9161 93.8812 89.9635 93.6678 90.0461C93.6398 90.0461 93.5724 89.9787 93.5893 89.9563C93.5108 90.1975 92.9726 89.8329 92.6362 89.9563C92.1091 89.7768 91.2568 89.7094 91.0269 89.5131C90.5922 89.5461 90.155 89.5102 89.7316 89.4065C89.8325 89.4065 89.9615 89.4065 90.0007 89.3672C89.7925 89.2848 89.567 89.2559 89.3447 89.2831C89.0591 89.1314 88.763 89.0002 88.4588 88.8905C88.0326 88.8905 88.1504 89.0475 88.0943 89.1204C87.7579 88.8119 86.8943 89.07 86.4626 88.7671C86.6084 88.7671 87.085 88.7671 86.7542 88.6325C86.4177 88.3239 85.9578 88.6773 85.3691 88.4473L85.4813 88.6773C85.2346 88.5034 84.5618 88.6324 84.6627 88.4417C84.444 88.4753 83.9562 88.2454 83.9843 88.4417C83.0142 88.0939 81.5284 88.0939 80.9789 87.6339C80.8275 87.6339 80.4741 87.5386 80.5302 87.6339C80.7488 87.7854 80.8779 87.6339 80.9564 87.7068C80.8219 87.7068 80.788 87.7349 80.7656 87.7629C80.4628 87.6564 80.2051 87.6003 80.5471 87.4881C79.8743 87.2412 79.7732 87.6956 78.9041 87.4544C78.9602 87.3815 78.9041 87.3366 78.635 87.3029L78.1192 87.3534C77.5585 87.2132 77.8331 87.1065 77.8443 86.9663C77.5663 86.9147 77.2812 86.9147 77.0032 86.9663L76.6667 86.7251C76.9135 86.899 76.4033 86.7644 76.252 86.77H76.4034C76.2168 86.6927 76.0166 86.6545 75.8147 86.6579C75.8427 86.7476 76.196 86.8486 76.3754 86.9103C76.2072 86.9439 75.9715 86.9103 75.7528 86.9103C75.8426 86.7869 75.2706 86.7252 75.0295 86.6635C74.7884 86.6018 74.6988 86.7307 74.6147 86.7083C74.6147 86.6409 74.1662 86.6129 74.4017 86.5568C74.497 86.5568 74.6034 86.6634 74.7716 86.6298C74.5978 86.5456 74.6427 86.4278 74.2445 86.4502C73.9474 86.4502 74.2725 86.7251 73.7454 86.5456C73.8495 86.5273 73.9511 86.4973 74.0482 86.4558L73.5494 86.2931L73.51 86.4165C73.4427 86.3717 73.5099 86.3661 73.4651 86.3437C73.2912 86.4503 72.6801 86.2483 72.5399 86.3718C72.282 86.3381 72.0184 86.1865 71.7717 86.1304H71.8223C71.5173 86.013 71.188 85.9726 70.8635 86.0127V86.0127C70.6117 85.9557 70.3527 85.9369 70.0953 85.9566C69.6972 85.794 70.0392 85.4686 69.5346 85.5415C69.114 85.4742 68.8337 85.6537 68.9739 85.7603C68.2337 85.5471 67.3421 85.5975 66.6749 85.2834C66.5627 85.317 66.6244 85.3564 66.3945 85.3508C65.2731 85.1095 64.0339 85.0984 63.1928 84.7057C63.5237 84.7057 63.2321 84.5822 63.2377 84.5149C62.9518 84.5766 62.9404 84.3466 62.8115 84.5149C62.8115 84.6327 62.7836 84.6832 63.0863 84.7786C62.3957 84.7352 61.7135 84.6033 61.0565 84.3859C61.2359 84.4701 61.0847 84.4812 60.9333 84.4925C61.0174 84.3186 60.5293 84.212 60.1481 84.2064L60.081 84.3073L59.8565 84.156C59.7107 84.156 59.6602 84.3522 59.2958 84.1839C59.2916 84.1569 59.282 84.1312 59.2676 84.108C59.2531 84.0849 59.2341 84.0649 59.2117 84.0493C58.7565 84.1137 58.2932 84.0852 57.8493 83.9652L57.5408 83.7463C57.3614 83.7463 57.0474 83.7745 57.3502 83.8755C56.8805 83.7784 56.4273 83.614 56.0046 83.3874C54.5101 83.4245 53.0166 83.2776 51.558 82.9498L51.6141 82.8769C51.244 82.7367 51.3954 82.9835 51.1374 82.8769C51.272 82.8209 50.8738 82.6638 51.1878 82.6133C50.6607 82.4394 50.4647 82.6133 50.1058 82.6133C50.0385 82.7143 50.4028 82.6133 50.3131 82.7199C50.2458 82.7479 49.5731 82.5122 49.4665 82.6581C49.3376 82.574 49.4666 82.473 49.5451 82.4225H49.2029C48.8272 82.1645 50.1843 82.2373 49.7918 81.9344H49.4832C49.2197 81.7157 50.3244 81.8728 49.5618 81.6933C49.2198 81.6933 48.8947 81.9009 49.1807 82.0243C48.4798 81.957 48.7994 82.3552 48.0593 82.2205C47.8686 82.0915 48.659 82.2935 48.5356 82.1364C48.2048 81.9513 47.818 82.1028 47.5152 82.0074C47.8517 82.1196 47.5152 82.243 47.3077 82.2374C46.9376 82.1027 47.5769 82.1196 47.0386 82.0243C46.9376 82.1028 46.4331 82.0971 46.848 82.2261C46.6237 82.4113 46.2873 82.0859 45.9845 82.2261C45.8275 82.0522 46.5901 81.9681 45.9845 81.8054C46.0574 81.9625 45.2275 81.8896 45.5078 82.1477C45.2835 82.0747 45.278 81.957 45.4575 81.8953C45.1378 81.755 44.6163 82.0467 44.549 81.7438L44.4146 81.8784C44.3193 81.8167 44.1732 81.7605 44.0162 81.6596C43.7247 81.6203 43.0519 81.7325 43.1023 81.5137C43.007 81.5137 42.3455 81.4297 42.581 81.6148C42.9848 81.7662 43.0687 81.5642 43.2762 81.8054C43.007 81.5979 42.6764 81.7494 42.4296 81.7719L42.4014 81.682C42.2557 81.682 41.9304 81.6372 41.8407 81.7213C41.9529 81.6821 41.908 81.6204 41.7958 81.5867L41.6277 81.6989C41.067 81.6989 41.5212 81.4577 40.9493 81.4296L41.3923 81.3791C41.2969 81.3791 41.1175 81.2445 40.8315 81.2557C40.7138 81.3679 40.5007 81.4857 40.3998 81.5699C40.0802 81.5699 40.2708 81.4183 39.9456 81.5081L40.3716 81.4072C40.4389 81.4072 40.1137 81.1828 39.6931 81.1379C39.4128 81.1379 38.9755 81.2781 39.3961 81.3903C39.183 81.3903 38.8914 81.267 39.0708 81.1941C38.583 81.1941 39.1212 81.3286 38.7007 81.3678C38.5381 81.2725 38.0167 81.1154 37.7027 80.9752L38.1569 80.8125H37.8708C38.2577 80.6835 37.6858 80.6722 37.9157 80.5208C37.704 80.4872 37.4882 80.4872 37.2764 80.5208C37.8371 80.8405 36.598 80.8405 36.7494 81.0817C35.9532 81.0817 36.2954 80.4368 35.4431 80.7789C35.5721 80.8519 35.1739 81.0201 35.6786 80.9752C35.1852 80.9247 35.3251 81.2052 34.7532 81.0761C35.1906 80.992 34.3048 80.8013 34.9328 80.6835C34.8879 80.762 35.2805 80.7621 35.3758 80.7453C35.1795 80.6387 35.4317 80.4984 34.927 80.4704C34.613 80.4704 34.1925 80.4704 34.2486 80.5938C34.3047 80.7172 34.7197 80.5938 34.5123 80.7396C33.8955 80.7396 33.8058 80.5377 33.5422 80.7733C33.9291 80.7733 34.0189 80.9248 34.0077 81.0201L33.5535 81.0594L33.6487 80.9696C32.9254 80.8686 33.4244 81.1154 32.7291 81.0761L32.4096 80.8855C32.5778 80.7228 33.4245 80.9808 33.3068 80.7228C32.8526 80.6835 32.6955 80.8294 32.2694 80.7509C32.3647 80.7509 32.4993 80.7228 32.5947 80.7003C32.432 80.7003 32.2749 80.3413 31.6189 80.5376C31.2824 80.6106 31.5293 80.6274 31.5181 80.7228C30.7892 80.7228 30.5704 80.8406 30.0994 80.8462C30.1947 80.6498 29.2696 80.8463 29.7911 80.6387C30.3055 80.7562 30.842 80.7329 31.3443 80.5713C31.0807 80.3413 31.9049 80.6105 32.0843 80.3862C31.4956 80.3862 31.5235 80.1506 31.4338 80.0047C31.2889 80.0024 31.1449 80.0253 31.0078 80.0721C30.9405 80.2067 31.1534 80.2067 31.1647 80.347C30.6094 80.2886 30.0482 80.3458 29.5162 80.5152C29.2975 80.4535 29.3648 80.3189 29.6227 80.2964C28.8371 80.3513 28.0491 80.3645 27.2621 80.3358C27.7499 80.5377 26.4378 80.4199 26.7742 80.5994C27.1723 80.5994 27.5201 80.7845 27.307 80.8855C27.0603 80.8855 27.3069 80.7845 27.206 80.7396C26.8976 80.8687 26.707 80.577 26.4098 80.7846C27.1107 80.6611 26.5333 80.504 26.651 80.3189C26.1464 80.4535 26.6509 80.1899 26.1631 80.2292C25.609 80.3692 25.0474 80.4777 24.481 80.5545C23.752 80.4255 22.6812 80.7508 22.0475 80.8181C21.6999 80.7732 21.9017 80.5489 21.5372 80.5545C21.1727 80.5601 21.8794 80.734 21.2401 80.7172L21.296 80.6723C21.111 80.7227 20.1242 80.706 19.984 81.0201L20.1466 80.7733C20.0365 80.7901 19.9302 80.8262 19.8326 80.8799C19.8326 80.8126 19.67 80.7732 19.8326 80.6947C19.412 80.6999 18.996 80.7816 18.6047 80.9359L18.8963 81.0145C18.201 81.2333 17.6963 81.1771 17.0178 81.3903V81.2613L16.6255 81.4296C16.6984 81.2894 16.3056 81.295 16.1094 81.4296L17.1131 80.8686C17.4215 80.8686 16.8216 81.0874 17.029 81.166C17.3443 81.1907 17.6588 81.1077 17.9208 80.9304C17.7643 80.9376 17.6127 80.988 17.4832 81.0761C17.3711 80.9247 17.7412 80.8406 17.9038 80.7059C17.7804 80.734 17.5841 80.706 17.5673 80.7789C17.854 80.6378 18.1637 80.5484 18.4815 80.5152C18.2067 80.6274 18.6607 80.5937 18.5598 80.661C18.5598 80.504 18.9634 80.3862 19.4961 80.3414C19.8998 80.4592 20.4606 80.044 21.083 80.0272C20.8132 80.2297 20.5145 80.3905 20.197 80.5041C20.5895 80.5041 20.6175 80.4143 21.0156 80.4479C21.22 80.2224 21.4879 80.064 21.7839 79.9935L21.8233 80.1057C22.2719 79.9935 22.2548 79.8253 22.838 79.7916C23.8304 79.7075 24.8565 79.6626 25.6416 79.6177L25.6752 79.7299C26.0846 79.4606 27.0828 79.5335 27.6435 79.4269C28.6191 79.5167 29.7517 79.2586 30.2508 79.4269L32.7236 79.3541C33.5366 79.3541 34.3497 79.3877 35.2356 79.4494L34.927 79.6009C35.2523 79.4943 35.1291 79.7074 35.4431 79.6962C35.0955 79.5447 35.8805 79.5448 36.1104 79.455C36.9372 79.6063 37.7819 79.6327 38.6166 79.5335V79.6514C39.3455 79.4831 40.1644 79.7804 41.0391 79.9038C41.1819 80.0188 41.3553 80.089 41.5379 80.1057C42.0146 80.0018 42.5032 79.9622 42.9904 79.9879C43.6081 80.0737 44.2203 80.1955 44.8239 80.3526C46.764 80.3526 48.6872 80.8238 50.6778 80.9977L50.801 81.1491C52.7579 81.1828 55.057 81.8503 56.7055 81.9962L56.5092 82.1926C57.0082 82.3497 57.6811 82.3384 57.5802 82.1533C58.0792 82.3104 58.8752 82.2654 59.1668 82.5122C59.5283 82.5693 59.8951 82.5863 60.2603 82.5628C61.0505 82.7751 61.8569 82.9214 62.6713 83.0003L62.4303 82.9442C62.3126 82.9779 62.29 83.0733 62.5311 83.1294C62.9068 83.1294 63.8714 83.421 63.5518 83.0901C64.5779 83.421 66.0357 83.3817 67.0226 83.7632C66.9497 83.6734 67.2076 83.7071 67.3254 83.6791C68.1903 83.8982 69.0688 84.0593 69.9551 84.1614C70.0953 84.2232 69.6972 84.2456 70.0728 84.3185C70.3027 84.3185 70.0729 84.2232 70.3757 84.2344C71.8952 84.3635 73.3811 84.9189 74.7437 85.132C77.1884 85.4294 79.689 85.9679 82.0048 86.3661L81.9714 86.4165C82.7844 86.3492 83.7486 86.9776 84.4215 86.7588C84.5953 86.8429 85.1168 86.9102 84.9822 86.9887C85.627 86.9551 86.6643 87.4375 87.6119 87.4095C87.536 87.395 87.4582 87.395 87.3822 87.4095C88.2625 87.6843 89.0642 87.662 90.0174 87.9369C89.9165 87.9369 89.7372 87.9368 89.6979 87.9817C90.0512 88.1499 90.612 87.9032 90.769 88.1949C90.9764 88.2286 90.9371 88.0939 90.8081 88.0771C92.8716 88.5371 95.1257 88.739 97.3013 89.0251C98.832 89.4178 97.3293 89.4795 98.5853 89.4739C98.6806 89.5412 98.6749 89.3841 98.6861 89.4402C99.1683 89.4402 99.3816 89.8498 99.7292 89.76C99.6171 89.5805 99.9647 89.7039 99.9871 89.6085C100.924 89.8498 101.109 90.0236 101.866 90.0068L101.792 90.0853C102.712 89.9787 103.716 90.248 104.495 90.0853C109.362 90.6855 114.027 91.0278 118.805 91.2971C123.504 91.6505 128.113 91.6279 132.884 91.6055C133.687 91.7684 134.515 91.7684 135.318 91.6055C135.267 91.6447 135.194 91.656 135.273 91.6897C135.329 91.499 136.142 91.628 136.243 91.4429C138.003 91.3363 139.607 91.168 141.419 90.9436C141.138 90.9997 141.009 91.1624 141.345 91.1119L141.688 90.9548L141.755 90.9997C141.979 90.9492 142.22 90.8314 141.979 90.7977C146.465 90.0965 150.95 89.6141 155.223 88.3912C156.424 88.0961 157.607 87.7347 158.767 87.3085C162.008 86.5596 165.149 85.4299 168.125 83.9427C168.125 83.9427 167.935 84.5879 166.656 85.2723Z" fill="#9C90EF"/>
<path d="M21.2176 81.166C21.3578 81.2277 21.7783 81.1659 21.4755 81.3791C21.4195 81.3062 21.1952 81.2557 21.2176 81.166Z" fill="#9C90EF"/>
<path d="M31.9049 80.5882C31.9049 80.5602 32.0619 80.5883 32.0955 80.6275C31.9665 80.6275 31.8488 80.734 31.7423 80.6892C31.8713 80.6723 31.8489 80.6331 31.9049 80.5882Z" fill="#9C90EF"/>
<path d="M34.6188 80.5432C34.3141 80.6655 33.9883 80.7265 33.66 80.7228L34.6188 80.5432Z" fill="#9C90EF"/>
<path d="M37.1421 80.8631C37.3552 80.936 37.2935 80.9753 37.0019 80.9697C36.9907 80.936 37.0804 80.9136 37.1421 80.8631Z" fill="#9C90EF"/>
<path d="M37.3213 80.6949C37.4654 80.6916 37.6082 80.7245 37.7364 80.7904C37.7308 80.7231 37.2484 80.8296 37.3213 80.6949Z" fill="#9C90EF"/>
<path d="M42.7827 81.1942C42.9116 81.1942 43.2031 81.1549 43.3152 81.2559C43.1862 81.1773 42.6705 81.3064 42.7827 81.1942Z" fill="#9C90EF"/>
<path d="M45.3339 81.295C45.4022 81.3097 45.473 81.3097 45.5414 81.295C45.6872 81.3455 45.5415 81.3903 45.3957 81.3847L45.3339 81.295Z" fill="#9C90EF"/>
<path d="M91.4978 88.7168L91.2174 88.7056L91.2735 88.6327L91.4978 88.7168Z" fill="#9C90EF"/>
<path d="M111.796 91.9143C112.082 91.9143 111.981 92.0208 112.026 92.0377C111.773 92.0152 112.127 91.9479 111.796 91.9143Z" fill="#9C90EF"/>
<path d="M122.87 92.6154H122.786L122.825 92.4471L122.87 92.6154Z" fill="#9C90EF"/>
<path d="M203.742 38.4709C204.179 38.1119 203.406 38.5382 204 38.2016C203.986 38.2658 203.954 38.3249 203.909 38.3724C203.863 38.4199 203.806 38.4539 203.742 38.4709Z" fill="#9C90EF"/>
<path d="M56.2848 43.9853C57.2923 43.8172 58.3163 43.7702 59.335 43.845C60.3889 43.9576 61.449 43.9988 62.5085 43.9684C62.744 43.9684 62.43 44.1985 62.9627 44.176C63.5087 44.1238 64.0576 44.1069 64.6057 44.1255C65.2001 44.1648 65.8281 44.2378 66.4729 44.3219C67.7421 44.4949 69.0016 44.7326 70.2465 45.0342L70.0951 45.0791C70.5325 45.1913 71.1044 45.0511 71.5698 45.1465C71.5698 45.1914 71.4127 45.1857 71.5136 45.2643C71.6482 45.1465 72.3716 45.3204 72.5847 45.2643C72.7641 45.3428 72.7304 45.4438 72.9603 45.5335L73.2519 45.427C73.6968 45.3287 74.1591 45.3421 74.5976 45.4662C75.0924 45.6091 75.6025 45.6921 76.1171 45.7131C76.061 45.7131 75.9545 45.7467 76.033 45.7972C77.8936 45.9398 79.745 46.1852 81.5786 46.5321C81.4945 46.5657 81.4105 46.6498 81.5058 46.7283C81.6235 46.5937 82.1954 46.661 82.6888 46.7283C82.8795 46.9359 83.5579 46.7284 84.1131 46.9472H84.0569C84.5111 46.8574 84.6625 47.1603 85.0494 47.0369L85.2906 47.2164C85.5205 47.0313 85.8513 47.4632 86.2494 47.4239V47.3735C86.5915 47.3735 86.7371 47.5361 87.0511 47.5642V47.5979C87.78 47.6876 88.1725 47.9008 88.1725 47.7212C88.3912 47.912 87.4662 47.6372 87.8138 47.9233C90.2025 48.2318 92.6078 48.8208 94.9684 49.3313C95.2208 49.4603 95.389 49.522 95.4339 49.6005C95.8038 49.6715 96.1788 49.7127 96.5553 49.7239C96.4768 49.7239 96.6899 49.8474 96.8132 49.8866C97.2225 50.0493 97.3236 49.7968 97.7778 49.982C97.5759 49.982 97.5029 50.0324 97.5478 50.111C98.0361 50.1104 98.523 50.1631 99 50.2681C98.9215 50.2681 98.7983 50.2681 98.8039 50.3298C99.3646 50.2906 99.7458 50.5766 100.222 50.5766L100.032 50.6384C100.738 50.9245 100.295 50.4756 100.912 50.6888C100.749 50.6888 100.794 50.7394 100.761 50.773C101.494 50.8085 102.224 50.9042 102.942 51.0591C102.932 51.0591 102.921 51.0631 102.914 51.0705C102.907 51.0778 102.903 51.0879 102.903 51.0983C103.553 51.2105 104.209 51.4236 104.938 51.4909C105.185 51.5919 104.798 51.721 105.499 51.8276C105.499 51.62 106.676 51.9902 106.323 51.6705C106.937 51.8653 107.565 52.0134 108.201 52.1137C107.927 52.1137 108.437 52.4221 107.949 52.338L108.291 52.5344C108.218 52.6073 107.916 52.4278 108.011 52.5344C108.258 52.5793 108.981 52.6466 109.188 52.7252C109.743 52.6229 110.309 52.6002 110.87 52.6578C110.511 52.6578 111.022 52.9214 110.781 52.9102L111.902 52.7139C112.143 52.7532 111.902 52.8877 112.283 52.9046C112.283 52.8429 112.435 52.8429 112.547 52.8149C112.659 52.7868 113.567 52.9607 113.635 53.1851C113.724 53.286 113.231 53.1515 113.489 53.2749C113.938 53.359 113.966 53.2749 114.414 53.3758V53.4039C114.706 53.4937 115.306 53.4711 115.003 53.3085C114.795 53.2636 115.059 53.4431 114.762 53.3085C115.165 53.2499 115.576 53.267 115.973 53.359C115.816 53.359 115.822 53.4207 115.749 53.4712C116.405 53.4353 117.063 53.4523 117.717 53.5217C117.745 53.4263 117.436 53.6562 117.347 53.5889C118.188 53.8638 119.158 53.7124 119.847 54.0153C119.73 54.0153 119.808 53.8694 119.808 53.8975C120.223 53.9704 120.184 54.1051 120.464 54.0939C120.464 54.178 120.812 54.0939 121.098 54.1332C121.249 54.0939 121.165 54.1837 120.919 54.1332C121.883 54.1419 122.843 54.2527 123.784 54.4641C124.036 54.3782 124.304 54.3496 124.569 54.38L124.473 54.4978C124.653 54.6043 125.169 54.5651 125.191 54.6773C125.421 54.6268 124.989 54.6155 124.58 54.6043C124.171 54.5931 123.772 54.5707 124.081 54.5539C124.221 54.6829 124.939 54.4641 124.793 54.6155C125.203 54.5909 125.615 54.6268 126.015 54.7221C125.903 54.6884 125.657 54.8624 126.015 54.8904C126.61 54.9297 126.189 54.8455 126.677 54.8567H126.985C127.019 54.7333 127.512 54.9297 127.305 54.767C127.372 54.8792 128.18 54.8006 128.096 54.997L127.995 55.1541C128.22 55.1291 128.439 55.0686 128.645 54.9746C128.645 54.9746 128.741 55.0363 128.724 55.0587C128.791 54.8175 129.335 55.1429 129.66 54.9859C130.193 55.1149 131.028 55.0868 131.275 55.2607C131.695 55.1835 132.125 55.174 132.548 55.2327C132.452 55.2327 132.323 55.2326 132.29 55.2999C132.501 55.3558 132.723 55.3558 132.935 55.2999C133.231 55.4223 133.537 55.5199 133.849 55.5916C134.269 55.5467 134.129 55.4009 134.179 55.3224C134.544 55.6029 135.351 55.2214 135.817 55.457C135.671 55.4907 135.206 55.5636 135.548 55.6309C135.918 55.889 136.316 55.4739 136.927 55.6309L136.781 55.4233C137.05 55.5579 137.684 55.3337 137.617 55.5412C137.818 55.4683 138.334 55.6253 138.267 55.4233C139.271 55.6421 140.706 55.3504 141.323 55.715C141.463 55.6814 141.822 55.7151 141.749 55.6141C141.514 55.5019 141.418 55.6926 141.329 55.6141C141.458 55.6141 141.485 55.5524 141.497 55.5244C141.811 55.5749 142.058 55.586 141.76 55.7543C142.456 55.8777 142.472 55.4122 143.358 55.4907C143.319 55.5748 143.386 55.6084 143.644 55.5916L144.132 55.4458C144.693 55.4458 144.457 55.6197 144.474 55.7599C144.752 55.7621 145.028 55.7126 145.287 55.6141L145.663 55.7768C145.388 55.659 145.909 55.687 146.055 55.6478L145.91 55.6871C146.104 55.7261 146.304 55.7261 146.498 55.6871C146.453 55.6029 146.095 55.5748 145.898 55.5579C146.05 55.4906 146.291 55.4962 146.498 55.4177C146.431 55.5579 146.997 55.5019 147.239 55.5075C147.48 55.5131 147.547 55.3785 147.631 55.3785C147.715 55.3785 148.085 55.3785 147.872 55.4851C147.777 55.4851 147.653 55.4234 147.496 55.4851C147.681 55.5299 147.665 55.6533 148.057 55.5523C148.343 55.4738 147.973 55.2887 148.523 55.3504C148.426 55.3915 148.334 55.4422 148.248 55.5019C148.422 55.5019 148.59 55.502 148.758 55.5468V55.4177C148.831 55.4457 148.758 55.4626 148.814 55.4738C148.96 55.3336 149.588 55.3897 149.694 55.2327C149.959 55.2351 150.223 55.2519 150.485 55.2831H150.44C150.759 55.3254 151.083 55.2848 151.382 55.1653V55.1934C151.636 55.1887 151.887 55.1452 152.128 55.0643C152.548 55.1317 152.302 55.5243 152.745 55.3392C153.165 55.3056 153.384 55.0531 153.21 54.9913C153.967 54.9913 154.797 54.7166 155.509 54.8456C155.616 54.7839 155.543 54.7614 155.761 54.7109C156.322 54.6772 156.883 54.5875 157.443 54.5202C157.946 54.4237 158.459 54.3972 158.969 54.4416C158.655 54.537 158.969 54.5707 158.969 54.638C159.221 54.4922 159.299 54.7109 159.372 54.509C159.333 54.4024 159.372 54.3463 159.036 54.3407C159.695 54.1803 160.371 54.1049 161.049 54.1163C160.864 54.1163 160.999 54.0378 161.139 53.9873C161.139 54.1725 161.598 54.1331 161.957 54.0209L161.991 53.9031L162.243 53.9761C162.378 53.92 162.361 53.7236 162.737 53.7629C162.749 53.787 162.767 53.8084 162.788 53.8257C162.809 53.8431 162.834 53.8561 162.86 53.8639C163.257 53.6515 163.695 53.5253 164.144 53.4936L164.509 53.5945C164.677 53.5441 164.951 53.3983 164.637 53.4095C165.104 53.3428 165.578 53.3428 166.045 53.4095C167.399 52.8387 168.816 52.4319 170.267 52.1977V52.2876C170.654 52.2876 170.43 52.1024 170.699 52.1024C170.598 52.209 171.018 52.209 170.749 52.3661C171.31 52.3268 171.394 52.0575 171.725 51.9341C171.753 51.8163 171.467 52.0744 171.501 51.9341C171.551 51.8836 172.246 51.8275 172.291 51.648C172.437 51.648 172.364 51.822 172.291 51.9006L172.594 51.7435C173.031 51.8276 171.781 52.3044 172.252 52.4278L172.544 52.3268C172.869 52.4165 171.803 52.7139 172.544 52.5793C172.852 52.4166 173.065 52.1193 172.762 52.1193C173.424 51.9061 172.975 51.6648 173.699 51.4909C173.923 51.5358 173.138 51.6649 173.301 51.7547C173.676 51.794 173.962 51.5079 174.276 51.4798C173.923 51.4798 174.164 51.2723 174.377 51.1881C174.758 51.1881 174.175 51.3956 174.702 51.2778C174.764 51.1656 175.218 50.9749 174.786 51.0198C174.921 50.773 175.347 50.9356 175.571 50.6832C175.784 50.7785 175.145 51.1824 175.729 51.0814C175.6 50.9692 176.362 50.6776 176.009 50.5654C176.239 50.5654 176.295 50.6384 176.16 50.773C176.502 50.773 176.844 50.2849 177.035 50.5317L177.097 50.3523C177.209 50.3523 177.36 50.3522 177.545 50.3915C177.826 50.3073 178.381 49.9259 178.42 50.1447C178.504 50.0942 179.138 49.909 178.846 49.8417C178.426 49.8698 178.431 50.0829 178.151 49.9539C178.476 50.0324 178.712 49.7576 178.919 49.6342L178.981 49.7071C179.104 49.6286 179.424 49.5556 179.474 49.4378C179.39 49.522 179.474 49.5556 179.575 49.5388L179.67 49.365C180.192 49.1069 179.872 49.5388 180.388 49.3144L180.018 49.55C180.102 49.4995 180.321 49.55 180.579 49.421C180.64 49.2751 180.775 49.0733 180.831 48.9555C181.106 48.7984 181.005 49.034 181.257 48.8152L180.921 49.0845C180.881 49.1462 181.246 49.1798 181.644 49.034C181.885 48.9049 182.205 48.6019 181.795 48.6805C181.992 48.6076 182.295 48.5795 182.166 48.7142C182.603 48.5178 182.065 48.6188 182.429 48.4056C182.614 48.4056 183.147 48.3552 183.489 48.3552L183.152 48.6861L183.427 48.5908C183.13 48.8713 183.646 48.6469 183.511 48.8713C183.715 48.8131 183.905 48.7159 184.072 48.5852C183.444 48.5515 184.532 47.9906 184.285 47.8223C184.98 47.4577 184.964 48.1925 185.575 47.5194C185.423 47.5194 185.709 47.1883 185.283 47.4464C185.743 47.2837 185.49 47.0874 186.062 46.9584C185.709 47.2221 186.578 47.0145 186.062 47.3904C186.062 47.295 185.72 47.4633 185.642 47.525C185.866 47.525 185.698 47.7717 186.163 47.5754C186.438 47.4352 186.819 47.2725 186.724 47.1771C186.629 47.0818 186.303 47.3679 186.427 47.1771C186.988 46.8966 187.145 47.0593 187.279 46.7283C186.931 46.8966 186.786 46.8013 186.752 46.7283L187.139 46.504L187.1 46.6218C187.784 46.4086 187.223 46.3919 187.868 46.1394L188.238 46.1674C188.16 46.3974 187.29 46.5153 187.509 46.7004C187.93 46.5433 188.008 46.3525 188.418 46.2291C188.339 46.2908 188.227 46.3526 188.154 46.4143C188.3 46.3526 188.591 46.5994 189.085 46.1338C189.354 45.9206 189.124 46.0103 189.085 45.9206C189.724 45.5784 189.875 45.3932 190.29 45.1801C190.29 45.3932 191.036 44.8379 190.66 45.2362C190.15 45.3519 189.681 45.6085 189.309 45.9767C189.64 46.0721 188.782 46.1954 188.748 46.4703C189.275 46.2235 189.343 46.4367 189.494 46.5321C189.621 46.4665 189.736 46.3813 189.836 46.2797C189.836 46.1282 189.645 46.2235 189.578 46.1001C190.092 45.903 190.564 45.6098 190.969 45.2362C191.193 45.2025 191.193 45.354 190.969 45.4774C191.311 45.2923 191.664 45.1128 192.023 44.9501L193.055 44.4341C192.533 44.4621 193.744 43.9909 193.374 43.9853C193.01 44.1311 192.64 44.1479 192.78 43.9572C192.998 43.8506 192.819 44.047 192.931 44.0414C193.144 43.7834 193.447 43.9796 193.627 43.6599C193.066 44.0638 193.627 43.9685 193.627 44.1817C194.025 43.8507 193.666 44.3049 194.109 44.0581C194.55 43.699 195.011 43.3639 195.488 43.0541C196.206 42.8802 197.025 42.1285 197.563 41.7919C197.888 41.691 197.804 41.9771 198.124 41.7919C198.443 41.6068 197.748 41.7919 198.325 41.5227L198.297 41.5899C198.426 41.4497 199.34 41.0907 199.34 40.7541L199.295 41.0346C199.391 40.98 199.473 40.9054 199.537 40.8159C199.581 40.872 199.727 40.855 199.593 40.9953C200.008 40.9167 200.271 40.5409 200.602 40.2828L200.31 40.339C200.837 39.8341 201.303 39.6602 201.841 39.2171L201.897 39.3292L202.189 39.0263C202.189 39.1833 202.531 39.0263 202.648 38.8132L201.953 39.6939C201.667 39.8061 202.127 39.3798 201.903 39.391C201.605 39.483 201.353 39.6832 201.196 39.9519C201.326 39.8727 201.439 39.7676 201.527 39.6434C201.69 39.7331 201.381 39.9463 201.297 40.1538C201.398 40.0697 201.583 40.008 201.572 39.9463C201.373 40.1917 201.137 40.4037 200.871 40.5745C201.062 40.3502 200.68 40.5746 200.742 40.4736C200.798 40.6139 200.507 40.9111 200.03 41.1467C199.621 41.1972 199.262 41.7695 198.718 42.05C198.866 41.7523 199.072 41.4871 199.323 41.2701C198.959 41.4048 198.965 41.5002 198.6 41.6348C198.512 41.9248 198.34 42.1823 198.107 42.3752L198.023 42.2967C197.669 42.5828 197.759 42.7287 197.254 43.0092C196.408 43.5141 195.494 43.9573 194.832 44.3219L194.754 44.2377C194.507 44.6528 193.576 44.9894 193.133 45.3596C192.696 45.5559 192.236 45.8083 191.827 46.0215C191.508 46.2182 191.157 46.357 190.789 46.4311L188.642 47.5979C187.924 47.9457 187.173 48.2542 186.36 48.5795L186.567 48.3103C186.32 48.5459 186.343 48.3103 186.068 48.4449C186.444 48.4449 185.737 48.7647 185.575 48.9443C185.163 49.0512 184.766 49.2075 184.391 49.4098C183.999 49.6005 183.618 49.7912 183.315 49.9707L183.248 49.8698C182.687 50.3073 181.812 50.4307 181.005 50.6776C180.827 50.6402 180.643 50.6539 180.472 50.7169C180.093 51.018 179.669 51.2584 179.216 51.4293C178.625 51.6069 178.024 51.7493 177.416 51.8556C175.678 52.7027 173.732 52.9775 171.848 53.6339L171.68 53.5385C170.719 53.8967 169.725 54.1634 168.714 54.3351C167.693 54.537 166.712 54.7334 165.91 54.9297L166.023 54.6773C165.507 54.6773 164.901 54.9353 165.036 55.07C164.514 55.07 163.785 55.3954 163.432 55.2664C163.071 55.3301 162.719 55.4374 162.383 55.586C161.57 55.6249 160.76 55.7243 159.961 55.8833H160.208C160.309 55.8216 160.303 55.7207 160.056 55.7431C159.698 55.8497 158.694 55.861 159.098 56.0797C158.027 56.0797 156.647 56.5005 155.593 56.3827C155.688 56.45 155.43 56.4891 155.33 56.5509C154.442 56.5721 153.557 56.6433 152.677 56.7641C152.526 56.736 152.902 56.6239 152.526 56.6407C152.302 56.6856 152.526 56.7361 152.257 56.7978C150.754 57.0222 149.195 56.8651 147.827 56.9436C146.61 57.0502 145.36 57.1062 144.126 57.1455H140.504L140.532 57.0895C139.747 57.3083 138.699 56.865 138.071 57.1511C137.886 57.095 137.364 57.1062 137.51 57.0053C136.882 57.1343 135.772 56.8145 134.863 56.9772C134.938 56.9905 135.014 56.9905 135.088 56.9772C134.185 56.8145 133.378 56.9155 132.424 56.7472C132.52 56.7472 132.699 56.7473 132.733 56.6688C132.368 56.5397 131.836 56.8426 131.65 56.5677C131.437 56.5677 131.493 56.6855 131.65 56.6911C129.553 56.4891 127.316 56.3546 125.124 56.1975C123.588 55.8553 125.085 55.7487 123.834 55.7824C123.744 55.7151 123.75 55.8722 123.739 55.8161C123.257 55.8161 123.044 55.4178 122.696 55.5075C122.808 55.687 122.466 55.5636 122.444 55.659C121.507 55.4234 121.322 55.2495 120.571 55.2664L120.644 55.1877C119.724 55.3112 118.737 55.0082 117.958 55.1541L114.369 54.5931L110.842 53.9817C108.499 53.5834 106.188 53.1178 103.856 52.6409C99.2804 51.5863 94.7778 50.6887 90.1687 49.5275C89.4394 49.1631 88.6442 48.9495 87.8305 48.8993C87.8866 48.8993 87.9596 48.8993 87.8867 48.832C87.7913 49.0002 87.04 48.6693 86.8942 48.832C85.184 48.4281 83.5861 48.1589 81.8198 47.8223C82.1002 47.856 82.2684 47.7382 81.9375 47.6877L81.5674 47.7325L81.517 47.6708C81.2871 47.6708 81.0178 47.6708 81.2421 47.7999L77.9115 47.2389C76.7901 47.0426 75.7136 46.8237 74.6145 46.5993L71.3288 46.0384L69.6858 45.7803C69.1251 45.7074 68.5644 45.6513 68.0374 45.6008C66.8219 45.4199 65.5979 45.302 64.3703 45.2474C62.6881 45.0174 61.0957 44.7986 59.4864 44.6415C57.8772 44.4845 56.2511 44.5182 54.5353 44.5743C54.4119 44.535 54.8549 44.0694 56.2848 43.9853Z" fill="#9C90EF"/>
<path d="M203.193 38.8861C203.041 38.8861 202.688 39.0769 202.873 38.7908C202.963 38.8356 203.181 38.7907 203.193 38.8861Z" fill="#9C90EF"/>
<path d="M193.801 43.7833C193.801 43.7833 193.655 43.8226 193.615 43.8226C193.728 43.7553 193.795 43.6263 193.907 43.6207C193.795 43.688 193.834 43.716 193.801 43.7833Z" fill="#9C90EF"/>
<path d="M191.412 45.0007C191.412 44.8998 191.905 44.6137 192.191 44.4398C191.939 44.6361 191.67 44.81 191.412 45.0007Z" fill="#9C90EF"/>
<path d="M189.012 45.7803C188.794 45.8083 188.827 45.7466 189.091 45.6232C189.13 45.6569 189.052 45.7186 189.012 45.7803Z" fill="#9C90EF"/>
<path d="M188.945 46.0216C188.82 46.0908 188.678 46.1239 188.535 46.117C188.563 46.1787 188.945 45.8701 188.945 46.0216Z" fill="#9C90EF"/>
<path d="M183.898 47.9456C183.786 48.0073 183.545 48.1699 183.399 48.125C183.523 48.1418 183.898 47.7997 183.898 47.9456Z" fill="#9C90EF"/>
<path d="M181.554 48.9275C181.484 48.9368 181.417 48.9616 181.358 49.0003C181.201 49.0003 181.33 48.905 181.448 48.8545L181.554 48.9275Z" fill="#9C90EF"/>
<path d="M136.316 55.5131L136.591 55.4795L136.546 55.558L136.316 55.5131Z" fill="#9C90EF"/>
<path d="M116.253 53.2973C115.979 53.2973 116.08 53.1906 116.04 53.1738C116.281 53.2075 115.934 53.2581 116.253 53.2973Z" fill="#9C90EF"/>
<path d="M105.465 51.5863L105.543 51.5976L105.482 51.7546L105.465 51.5863Z" fill="#9C90EF"/>
</svg>
